<?xml version="1.0" encoding="utf-8"?>
<!-- Generator: Adobe Illustrator 16.0.0, SVG Export Plug-In . SVG Version: 6.00 Build 0)  -->
<!DOCTYPE svg PUBLIC "-//W3C//DTD SVG 1.1//EN" "http://www.w3.org/Graphics/SVG/1.1/DTD/svg11.dtd">
<svg version="1.1" id="Layer_1" xmlns="http://www.w3.org/2000/svg" xmlns:xlink="http://www.w3.org/1999/xlink" x="0px" y="0px"
	 width="345.362px" height="86.099px" viewBox="0 0 345.362 86.099" enable-background="new 0 0 345.362 86.099"
	 xml:space="preserve">
<path fill="#FFFFFF" d="M269.178,82.655c-0.305-0.143-0.712-0.299-1.218-0.465c-0.447-0.146-0.794-0.277-1.045-0.389
	c-0.251-0.115-0.459-0.266-0.63-0.453c-0.169-0.186-0.256-0.422-0.256-0.707c0-0.408,0.164-0.707,0.49-0.906
	c0.325-0.197,0.749-0.293,1.26-0.293c0.36,0,0.719,0.047,1.08,0.139c0.36,0.094,0.674,0.223,0.941,0.391v-0.6
	c-0.268-0.154-0.586-0.273-0.951-0.361c-0.365-0.086-0.737-0.129-1.11-0.129c-0.412,0-0.794,0.066-1.146,0.195
	c-0.349,0.129-0.63,0.33-0.841,0.6c-0.215,0.27-0.32,0.598-0.32,0.984c0,0.4,0.103,0.729,0.309,0.98
	c0.206,0.254,0.459,0.447,0.759,0.588s0.698,0.291,1.19,0.453c0.452,0.15,0.808,0.285,1.067,0.402
	c0.263,0.117,0.483,0.275,0.663,0.48c0.181,0.203,0.27,0.459,0.27,0.764c0,0.42-0.178,0.727-0.534,0.92
	c-0.358,0.193-0.817,0.291-1.387,0.291c-0.859,0-1.644-0.207-2.349-0.621v0.59c0.719,0.393,1.529,0.59,2.431,0.59
	c0.698,0,1.279-0.15,1.743-0.445c0.464-0.297,0.695-0.752,0.695-1.365c0-0.412-0.11-0.752-0.325-1.018
	C269.747,83.003,269.484,82.798,269.178,82.655z"/>
<path fill="#FFFFFF" d="M10.459,6.322h-0.064c0-0.19,0.059-0.29,0.144-0.344V0.991H0V57.26h10.539V6.301
	C10.519,6.313,10.494,6.322,10.459,6.322z M5.272,15.357c0.102,0,0.194,0,0.278,0c0.167,0,0.248,0.069,0.248,0.198v0.202
	c0,0.067-0.061,0.103-0.183,0.103H5.363l-0.123-0.199l-0.126-0.203C5.114,15.393,5.17,15.357,5.272,15.357z M5.428,43.973
	c0,0.131-0.042,0.204-0.125,0.204H5.052H4.929c-0.083,0-0.125-0.105-0.125-0.305c0-0.129,0.088-0.204,0.248-0.204
	c0.126,0,0.208,0.035,0.251,0.108C5.344,43.839,5.386,43.907,5.428,43.973z M4.995,40.059c0.12,0,0.184,0.067,0.184,0.198v0.102
	c-0.249,0.405-0.457,0.601-0.622,0.601l-0.121-0.195C4.436,40.289,4.619,40.059,4.995,40.059z M3.13,18.17l-0.064,0.103
	c-0.042,0-0.06-0.103-0.06-0.301C3.088,17.972,3.13,18.036,3.13,18.17z M2.788,31.823c0.062-0.066,0.094-0.168,0.094-0.302
	c0.288,0,0.432,0.103,0.432,0.302s-0.103,0.301-0.308,0.301c-0.211,0-0.313-0.033-0.313-0.102
	C2.693,31.958,2.725,31.894,2.788,31.823z M0.767,34.333v-0.1H0.83c0.043,0,0.072-0.013,0.095-0.049
	c0.018-0.034,0.05-0.053,0.091-0.053c0.085,0,0.143,0.036,0.186,0.102c0,0.066-0.011,0.113-0.03,0.148
	c-0.019,0.039-0.029,0.088-0.029,0.152c-0.085,0-0.167,0-0.25,0S0.767,34.47,0.767,34.333z M1.576,40.56
	c0,0.137-0.042,0.204-0.123,0.204c-0.125,0-0.179,0-0.157,0c0.02,0-0.011-0.067-0.094-0.204c-0.043,0.064-0.083,0.096-0.125,0.096
	l-0.122-0.398c0-0.131,0.083-0.198,0.247-0.198c0.041,0,0.106,0.032,0.186,0.101c0,0.063,0.042,0.098,0.125,0.098
	c0.039,0,0.062,0.032,0.062,0.102V40.56z M3.252,46.282c-0.164,0-0.246-0.139-0.246-0.4v-0.105c0.205,0,0.308,0.072,0.308,0.204
	C3.314,46.113,3.294,46.217,3.252,46.282z M3.625,38.55c0,0.137-0.072,0.248-0.218,0.354c-0.144,0.098-0.257,0.151-0.342,0.151
	c-0.163,0-0.271-0.067-0.311-0.204c-0.04,0.067-0.082,0.103-0.124,0.103c-0.041,0-0.07-0.083-0.089-0.247
	c-0.026-0.174-0.037-0.32-0.037-0.455c0-0.067,0.011-0.103,0.037-0.103c0.019,0,0.03-0.032,0.03-0.103h0.121
	c0.083,0,0.179-0.015,0.281-0.049c0.102-0.032,0.195-0.048,0.277-0.048c0.25,0,0.374,0.167,0.374,0.503V38.55z M4.619,47.587
	c-0.081-0.065-0.176-0.15-0.279-0.251c-0.106-0.099-0.154-0.316-0.154-0.655h0.126c0.204,0,0.349,0.107,0.433,0.304
	c0.079,0.204,0.184,0.368,0.307,0.504c0,0.068-0.039,0.099-0.123,0.099H4.68H4.619z M5.428,54.414c0-0.136-0.064-0.204-0.187-0.204
	c-0.126,0-0.228-0.131-0.312-0.396c0.084-0.136,0.229-0.206,0.434-0.206c0.292,0,0.522,0.136,0.684,0.405
	C5.923,54.278,5.717,54.414,5.428,54.414z M6.917,42.062l0.124,0.203v0.104c-0.082,0-0.124-0.036-0.124-0.104
	c-0.041,0-0.06-0.033-0.06-0.098C6.858,42.101,6.876,42.062,6.917,42.062z M7.661,47.786c-0.039,0.065-0.081,0.105-0.126,0.105
	c-0.08,0.062-0.226,0.096-0.433,0.096c-0.123,0-0.184-0.096-0.184-0.3c0-0.469,0.146-0.703,0.435-0.703
	c0.083,0,0.145,0.017,0.183,0.05c0.045,0.035,0.106,0.049,0.189,0.049h0.063c0.082,0,0.124,0.052,0.124,0.154
	c0,0.099,0.019,0.146,0.06,0.146v0.105c0,0.068-0.041,0.164-0.121,0.298H7.661z M9.155,53.91c-0.125,0.136-0.228,0.202-0.316,0.202
	c-0.204,0-0.403-0.099-0.587-0.298c-0.185-0.206-0.281-0.473-0.281-0.806c0-0.204,0.084-0.335,0.25-0.4
	c0.208,0.134,0.384,0.196,0.528,0.196c0.145,0,0.256,0.134,0.341,0.403c0.042,0,0.065-0.015,0.065-0.05s0.019-0.049,0.061-0.049
	c0.041,0,0.05,0.065,0.03,0.201c-0.02,0.132,0.011,0.197,0.091,0.197C9.338,53.642,9.278,53.779,9.155,53.91z"/>
<path fill="#FFFFFF" d="M42.199,44.333c0,1.396-0.561,2.485-1.708,3.331c-1.155,0.843-2.512,1.253-4.147,1.253
	c-1.635,0-2.989-0.41-4.146-1.253c-1.151-0.846-1.71-1.935-1.71-3.331V13.918c0-1.407,0.531-2.5,1.625-3.345
	c1.08-0.835,2.393-1.238,4.02-1.238c1.623,0,2.939,0.403,4.016,1.24c0.215,0.165,0.391,0.348,0.562,0.533
	c0.013-0.007,0.045-0.005,0.051-0.015c0.021-0.035,0.052-0.053,0.096-0.053c0.163,0,0.309,0.053,0.433,0.148
	c0.123,0.104,0.227,0.219,0.309,0.357c-0.082,0.064-0.21,0.098-0.372,0.098c-0.037,0-0.081-0.012-0.119-0.015
	c0.431,0.653,0.668,1.403,0.668,2.29v4.401h10.146v-4.685c0-2.614-0.632-4.917-1.875-6.893c-0.07,0.049-0.149,0.081-0.249,0.081
	c-0.5,0-0.746-0.166-0.746-0.503c0-0.2,0.102-0.3,0.312-0.3c0.062,0,0.134,0.028,0.199,0.038C48.861,5.098,48.019,4.213,47,3.427
	C44.028,1.152,40.299,0,35.921,0c-4.383,0-8.11,1.152-11.09,3.427c-3.26,2.525-4.914,5.959-4.914,10.208v30.982
	c0,4.255,1.704,7.691,5.063,10.211c2.996,2.27,6.75,3.422,11.151,3.422c4.402,0,8.164-1.147,11.183-3.419
	c3.339-2.525,5.033-5.959,5.033-10.214v-4.685H42.199V44.333z M45.855,6.222c0.143-0.066,0.28-0.102,0.4-0.102
	c0.211,0,0.378,0.102,0.499,0.305v0.199c0,0.268-0.084,0.471-0.246,0.603c-0.126-0.065-0.3-0.132-0.528-0.204
	c-0.227-0.066-0.343-0.199-0.343-0.398S45.709,6.287,45.855,6.222z M42.222,15.155c0.206,0.202,0.31,0.369,0.31,0.504
	c0,0.064,0.01,0.115,0.033,0.148c0.021,0.035,0.029,0.088,0.029,0.154c0,0.064-0.041,0.098-0.123,0.098h-0.25h-0.063
	c-0.084-0.13-0.152-0.217-0.218-0.252c-0.061-0.033-0.09-0.148-0.09-0.352C41.851,15.261,41.972,15.155,42.222,15.155z
	 M41.352,7.627c0.166,0,0.248,0.099,0.248,0.302c-0.082,0.063-0.186,0.097-0.309,0.097c-0.082,0-0.124-0.065-0.124-0.196
	C41.167,7.691,41.228,7.627,41.352,7.627z"/>
<path fill="#FFFFFF" d="M299.893,25.046c-1.649-0.768-2.927-1.372-3.929-1.853c0.07,0.082,0.14,0.209,0.209,0.397h-0.124v0.099
	c0,0.07-0.023,0.103-0.063,0.103h-0.248h-0.124c-0.042-0.134-0.063-0.304-0.063-0.502c0.073-0.121,0.148-0.176,0.222-0.188
	c-1.106-0.533-1.846-0.901-2.342-1.157c-0.163,0.027-0.292,0.043-0.365,0.043c-0.327,0-0.494-0.17-0.494-0.506
	c0-0.003,0.002-0.006,0.002-0.009c-0.018-0.011-0.035-0.022-0.049-0.032c-2.005-1.322-2.979-2.865-2.979-4.715v-2.758
	c0-1.41,0.534-2.516,1.618-3.372c1.101-0.839,2.417-1.246,4.023-1.246c1.581,0,2.825,0.406,3.802,1.24
	c0.979,0.845,1.454,1.95,1.454,3.378V18.3h10.572v-4.651c0-4.243-1.618-7.665-4.808-10.166c-2.926-2.298-6.634-3.468-11.021-3.468
	c-4.377,0-8.125,1.15-11.148,3.425c-3.36,2.547-5.065,5.981-5.065,10.209v3.361c0,4.2,1.241,7.702,3.687,10.399
	c1.686,1.884,4.333,3.668,7.859,5.297c5.415,2.521,7.003,3.338,7.371,3.571c2.003,1.321,2.977,2.878,2.977,4.749v3.253
	c0,1.427-0.541,2.53-1.66,3.38c-1.08,0.834-2.394,1.239-4.02,1.239c-1.644,0-3.033-0.405-4.231-1.229
	c-1.234-0.869-1.834-1.977-1.834-3.39v-4.366h-10.148v4.686c0,4.255,1.705,7.691,5.07,10.214c3.019,2.271,6.767,3.419,11.144,3.419
	c4.403,0,8.165-1.147,11.182-3.422c3.342-2.522,5.035-5.958,5.035-10.211v-3.891c0-4.174-1.229-7.67-3.658-10.404
	C306.059,28.445,303.415,26.675,299.893,25.046z M291.947,9.132h0.122h0.189c0.164,0,0.249,0.102,0.249,0.3
	c0,0.271-0.085,0.4-0.249,0.4c-0.086,0-0.178-0.009-0.278-0.048c-0.105-0.033-0.157-0.115-0.157-0.253
	C291.823,9.401,291.865,9.267,291.947,9.132z M293.932,29.263c-0.162,0.035-0.35,0.048-0.556,0.048v-0.3l-0.061-0.1
	c0-0.064,0.037-0.118,0.124-0.15c0.08-0.033,0.124-0.084,0.124-0.152h0.122h0.372c0.124,0,0.228,0.041,0.312,0.102
	C294.245,29.044,294.098,29.229,293.932,29.263z M293.932,53.109h-0.246h-0.063c-0.121-0.065-0.183-0.171-0.183-0.305
	c0-0.131,0.08-0.201,0.246-0.201c0.246,0,0.372,0.104,0.372,0.302C294.058,53.044,294.019,53.109,293.932,53.109z M303.501,34.233
	c0.078,0,0.164-0.031,0.246-0.102c0.085,0,0.134,0.018,0.157,0.049c0.021,0.035,0.089,0.053,0.216,0.053v0.1
	c0,0.063,0.019,0.087,0.065,0.049c0.04-0.035,0.061-0.018,0.061,0.049c-0.042,0.27-0.166,0.404-0.375,0.404
	c-0.124,0-0.245-0.018-0.37-0.047c-0.126-0.035-0.187-0.121-0.187-0.254C303.314,34.47,303.375,34.364,303.501,34.233z
	 M303.811,53.56c-0.042,0.098-0.105,0.149-0.185,0.149l-0.125-0.201c0-0.132,0.078-0.204,0.246-0.204
	c0.085,0,0.134,0.023,0.157,0.059c0.021,0.03,0.054,0.047,0.089,0.047C303.911,53.409,303.851,53.458,303.811,53.56z
	 M304.152,47.636c-0.023,0.099-0.117,0.15-0.281,0.15c-0.082,0-0.196-0.063-0.339-0.199c-0.147-0.136-0.218-0.234-0.218-0.3
	c0-0.139,0.051-0.218,0.154-0.253c0.103-0.033,0.196-0.057,0.278-0.057c0.164,0,0.354,0.105,0.56,0.31
	C304.226,47.418,304.174,47.537,304.152,47.636z M304.307,43.872c0,0.199-0.081,0.318-0.245,0.354
	c-0.169,0.03-0.293,0.05-0.377,0.05c-0.289,0-0.437-0.204-0.437-0.607c0-0.063,0.055-0.08,0.159-0.05
	c0.104,0.035,0.157-0.014,0.157-0.149h0.12h0.309c0.169,0,0.271,0.07,0.313,0.199V43.872z M304.432,37.745v0.301
	c0,0.205-0.186,0.302-0.561,0.302c-0.166,0-0.292-0.032-0.37-0.097c-0.084,0-0.147-0.033-0.187-0.105l-0.066,0.105
	c-0.037-0.067-0.059-0.141-0.059-0.205c0-0.198,0.033-0.301,0.092-0.301c0.063,0,0.136-0.066,0.22-0.197
	c0.41,0,0.725,0.033,0.931,0.098V37.745z M308.157,46.681c0.164,0,0.249,0.101,0.249,0.297l-0.127,0.105
	c-0.084,0-0.122-0.063-0.122-0.203V46.681z"/>
<polygon fill="#FFFFFF" points="231.104,79.562 233.663,79.562 233.663,85.989 234.253,85.989 234.253,79.562 236.812,79.562 
	236.812,78.993 231.104,78.993 "/>
<path fill="#FFFFFF" d="M92.032,18.168c-0.123,0-0.229,0-0.312,0c-0.415,0-0.683-0.136-0.807-0.407
	c0.084-0.465,0.125-0.734,0.125-0.801c0-0.064,0.102-0.097,0.309-0.097c0.293,0,0.533,0.191,0.724,0.559v-3.787
	c0-4.253-1.692-7.688-5.033-10.216C84.016,1.149,80.255,0,75.854,0C71.45,0,67.7,1.152,64.708,3.419
	c-3.365,2.523-5.07,5.961-5.07,10.216v30.982c0,4.255,1.705,7.691,5.065,10.211c2.997,2.27,6.747,3.422,11.15,3.422
	c4.402,0,8.162-1.147,11.184-3.419c3.341-2.525,5.033-5.959,5.033-10.214V18.154C92.056,18.156,92.049,18.168,92.032,18.168z
	 M61.848,15.659c-0.126,0-0.208,0.037-0.249,0.099c-0.042,0.065-0.105,0.099-0.186,0.099c-0.041,0-0.063-0.033-0.063-0.099
	c0-0.132,0.022-0.217,0.063-0.251c0.041-0.033,0.081-0.115,0.123-0.246c0.044,0,0.104,0.016,0.185,0.047
	c0.085,0.034,0.126,0.117,0.126,0.248V15.659z M62.096,7.627c0-0.067,0.02-0.134,0.062-0.202c0.168,0,0.25,0.068,0.25,0.202
	c0.041,0,0.061,0.015,0.061,0.05s0.02,0.049,0.063,0.049c0.039,0,0.061-0.014,0.061-0.049s0.022-0.05,0.062-0.05v0.202
	c0,0.131-0.123,0.196-0.373,0.196c-0.042,0-0.082-0.033-0.124-0.097C62.116,7.862,62.096,7.765,62.096,7.627z M62.531,11.644
	c-0.043,0-0.103,0-0.186,0c-0.085,0-0.124-0.033-0.124-0.098c0-0.139,0.124-0.271,0.371-0.406c0.25-0.133,0.456-0.199,0.621-0.199
	l0.063,0.199v0.201c-0.125,0.066-0.25,0.138-0.374,0.205C62.78,11.61,62.654,11.644,62.531,11.644z M63.926,44.82
	c-0.019,0.035-0.067,0.052-0.154,0.052c-0.249,0-0.433-0.099-0.56-0.297c0-0.139,0.063-0.204,0.188-0.204h0.309h0.063
	c0,0.204,0.04,0.271,0.126,0.204c0.081-0.066,0.142,0,0.183,0.198C64.001,44.773,63.946,44.79,63.926,44.82z M89.795,12.845
	c0.374,0,0.663,0.17,0.869,0.502v0.2h-0.125c0.084,0-0.04-0.03-0.37-0.097c-0.335-0.066-0.58-0.271-0.746-0.605H89.795z
	 M86.132,10.137c0.124,0,0.185,0.064,0.185,0.196v0.201c-0.165,0-0.267,0.067-0.312,0.203v0.101c-0.082,0-0.144-0.101-0.186-0.304
	c-0.122,0-0.184-0.029-0.184-0.098C85.635,10.233,85.798,10.137,86.132,10.137z M82.996,13.997c0.144-0.032,0.321-0.109,0.527-0.248
	c0.207,0.139,0.39,0.198,0.561,0.198c0.161,0,0.389,0.035,0.681,0.1c0.289-0.064,0.506-0.196,0.654-0.4
	c0.142-0.196,0.34-0.368,0.587-0.498c0.167,0.13,0.394,0.198,0.685,0.198c0.456,0,0.745-0.148,0.867-0.455
	c0.125-0.301,0.292-0.45,0.501-0.45c0.08,0,0.141,0.038,0.184,0.102c-0.206,0.267-0.352,0.556-0.436,0.854
	c-0.083,0.304-0.167,0.617-0.25,0.953c-0.332,0.137-0.681,0.237-1.054,0.305c-0.371,0.062-0.58,0.368-0.622,0.9
	c-0.041,0.066-0.123,0.1-0.246,0.1c-0.209,0-0.405-0.053-0.592-0.15c-0.184-0.1-0.363-0.147-0.53-0.147
	c-0.165,0-0.329,0.018-0.498,0.048c-0.16,0.034-0.307,0.051-0.433,0.051c-0.123,0-0.29-0.114-0.494-0.35
	c-0.21-0.236-0.354-0.451-0.436-0.654C82.734,14.184,82.848,14.034,82.996,13.997z M82.652,17.164c0.082,0,0.196,0.05,0.343,0.149
	c0.144,0.102,0.276,0.15,0.403,0.15c0.29,0,0.559-0.08,0.807-0.25c0.247-0.166,0.518-0.254,0.808-0.254
	c0.083,0,0.144,0.018,0.185,0.05c0.041,0.038,0.084,0.049,0.125,0.049v0.204v0.1h0.062c0.041,0,0.062,0.037,0.062,0.102
	c0,0.402-0.249,0.687-0.744,0.857c-0.498,0.165-0.868,0.246-1.121,0.246c-0.246,0-0.508-0.031-0.775-0.104
	c-0.271-0.066-0.503-0.158-0.713-0.296v-0.105v-0.4c0-0.064,0.073-0.165,0.218-0.3C82.455,17.231,82.571,17.164,82.652,17.164z
	 M81.41,9.531h0.062c0.086,0,0.131-0.015,0.156-0.05c0.015-0.025,0.067-0.031,0.118-0.032c0.014,0.006,0.059,0.015,0.132,0.032
	c0.143,0.035,0.237,0.117,0.276,0.254c-0.083,0.131-0.144,0.219-0.184,0.252c-0.044,0.029-0.125,0.047-0.251,0.047
	c0.04,0,0,0-0.124,0S81.41,9.897,81.41,9.628V9.531z M66.691,43.469c0,0.136-0.022,0.232-0.061,0.3
	c-0.041,0.07-0.104,0.169-0.186,0.303H66.32h-0.249c-0.168,0-0.249-0.164-0.249-0.501c0-0.134,0.102-0.236,0.309-0.307
	c0.208-0.065,0.353-0.095,0.433-0.095c0.085,0,0.126,0.061,0.126,0.201V43.469z M65.945,40.456c-0.248,0-0.371-0.098-0.371-0.297
	c0-0.273,0.083-0.438,0.249-0.505c0.165-0.066,0.331-0.104,0.498-0.104c0.245,0,0.395,0.138,0.433,0.406
	C66.543,40.288,66.279,40.456,65.945,40.456z M65.761,30.313c0.04-0.064,0.142-0.097,0.31-0.097c0.161,0,0.288,0.032,0.373,0.097
	h0.063c0.036,0,0.057,0.138,0.057,0.402c-0.121-0.066-0.267-0.066-0.433,0C65.966,30.784,65.843,30.649,65.761,30.313z
	 M66.753,27.001c0,0.269-0.039,0.42-0.123,0.452c-0.086,0.036-0.167,0.053-0.249,0.053c-0.166,0-0.329-0.202-0.498-0.603
	c0-0.269,0.041-0.4,0.124-0.4c0.125,0,0.272,0.031,0.437,0.097c0.168,0.069,0.271,0.167,0.309,0.304V27.001z M82.715,48.887v0.402
	c0,0.136-0.022,0.204-0.062,0.204l-0.063-0.101c-0.123,0-0.258,0.049-0.403,0.147c-0.146,0.101-0.26,0.154-0.34,0.154
	c-0.086,0-0.165-0.032-0.25-0.105c-0.082-0.065-0.124-0.164-0.124-0.3c0-0.198,0.114-0.349,0.345-0.452
	c0.223-0.098,0.421-0.151,0.587-0.151c0.081,0,0.132,0.023,0.158,0.054c0.016,0.032,0.069,0.049,0.152,0.049V48.887z M83.088,25.997
	c-0.043,0-0.073-0.015-0.093-0.05c-0.023-0.034-0.056-0.052-0.094-0.052l-0.064,0.102v0.1h-0.062c0.085,0,0.073-0.016-0.03-0.05
	c-0.103-0.032-0.246-0.079-0.433-0.151c-0.187-0.066-0.385-0.147-0.592-0.252c-0.069-0.033-0.126-0.08-0.186-0.125v18.78
	c0,1.429-0.543,2.529-1.663,3.382c-1.077,0.831-2.394,1.236-4.018,1.236c-1.625,0-2.939-0.405-4.021-1.241
	c-1.092-0.841-1.623-1.946-1.623-3.377V13.918c0-1.407,0.531-2.5,1.623-3.345c1.081-0.835,2.395-1.238,4.021-1.238
	c1.624,0,2.94,0.403,4.025,1.246c1.112,0.843,1.656,1.934,1.656,3.337v0.258c0.089-0.079,0.174-0.129,0.25-0.129
	c0.081,0,0.163,0.071,0.245,0.204v0.1v0.201c0,0.07-0.019,0.104-0.059,0.104h-0.063c-0.123,0-0.209,0.094-0.25,0.298
	c-0.025,0.121-0.07,0.194-0.124,0.243v9.508c0.151-0.137,0.336-0.211,0.56-0.211c0.082,0,0.156,0.018,0.218,0.049
	c0.061,0.035,0.133,0.054,0.218,0.054h0.06c0.167,0,0.289,0.079,0.376,0.249c0.08,0.167,0.164,0.316,0.245,0.453
	C83.21,25.564,83.168,25.798,83.088,25.997z M83.957,28.311c-0.081,0-0.176-0.053-0.276-0.155c-0.107-0.103-0.158-0.215-0.158-0.35
	c0-0.136,0.042-0.266,0.125-0.402c0.081-0.134,0.163-0.198,0.245-0.198c0.165,0,0.292,0.134,0.377,0.397
	C84.27,28.073,84.165,28.311,83.957,28.311z M85.944,26.298c0,0.337-0.125,0.57-0.372,0.703c-0.086-0.133-0.167-0.201-0.25-0.201
	c-0.083,0-0.125-0.065-0.125-0.201c0-0.403,0.105-0.602,0.313-0.602c0.206,0,0.35,0.069,0.433,0.198V26.298z M87.188,32.674
	c-0.127,0.169-0.292,0.251-0.498,0.251c-0.082-0.131-0.177-0.213-0.279-0.251c-0.105-0.032-0.156-0.117-0.156-0.251
	c0.082-0.202,0.183-0.337,0.311-0.4c0.124-0.066,0.267-0.168,0.433-0.303c0.124,0,0.25,0,0.373,0c0.126,0,0.23,0.168,0.31,0.501
	C87.476,32.356,87.312,32.509,87.188,32.674z M87.531,24.146c-0.15,0.23-0.323,0.348-0.532,0.348c-0.207,0-0.425-0.069-0.653-0.201
	c-0.227-0.133-0.506-0.203-0.835-0.203c-0.047,0.07-0.106,0.104-0.188,0.104H84.95h-0.06c0,0.132-0.085-0.018-0.252-0.455
	c-0.166-0.436-0.31-0.718-0.433-0.855c-0.085,0-0.157-0.044-0.218-0.145c-0.064-0.105-0.111-0.186-0.152-0.256
	c0-0.263,0.098-0.4,0.307-0.4h0.311h0.125c0.084,0.268,0.228,0.4,0.436,0.4c0.206,0,0.391,0.035,0.559,0.102
	c0.078,0,0.214-0.031,0.403-0.102c0.189-0.062,0.281-0.263,0.281-0.6c0-0.269-0.083-0.453-0.25-0.555
	c-0.165-0.098-0.341-0.165-0.527-0.197c-0.185-0.033-0.353-0.088-0.493-0.152c-0.152-0.066-0.221-0.236-0.221-0.502
	c0-0.135,0.135-0.316,0.403-0.553c0.269-0.231,0.561-0.451,0.871-0.649c0.308-0.202,0.579-0.39,0.809-0.552
	c0.226-0.168,0.317-0.258,0.276-0.258c0.249,0,0.434,0.17,0.559,0.505v0.103c0,0.202-0.049,0.354-0.151,0.45
	c-0.109,0.099-0.219,0.188-0.343,0.253c-0.127,0.065-0.24,0.184-0.341,0.353c-0.103,0.163-0.157,0.448-0.157,0.851
	c0.041,0.268,0.132,0.436,0.279,0.498c0.145,0.074,0.301,0.138,0.466,0.203c0.167,0.068,0.302,0.153,0.404,0.253
	c0.104,0.104,0.156,0.287,0.156,0.55c0,0.07-0.014,0.119-0.031,0.15c-0.021,0.035-0.033,0.123-0.033,0.25
	c0.082,0.138,0.126,0.372,0.126,0.705C87.85,23.72,87.67,23.908,87.531,24.146z M87.557,17.614
	c-0.164,0.032-0.267,0.188-0.308,0.448c-0.167-0.334-0.354-0.579-0.559-0.749c-0.206-0.166-0.353-0.418-0.435-0.756
	c0-0.199,0.102-0.299,0.311-0.299c0.205,0,0.362,0.066,0.464,0.203c0.104,0.131,0.342,0.196,0.718,0.196
	c0.204,0,0.39-0.009,0.556-0.052c0.166-0.03,0.351-0.049,0.56-0.049c0.04,0.141,0.061,0.338,0.061,0.606
	c-0.085,0.27-0.195,0.419-0.34,0.45c-0.148,0.032-0.311,0.032-0.498,0C87.901,17.583,87.723,17.583,87.557,17.614z M90.384,24.896
	c-0.269,0-0.485,0-0.652,0c-0.122,0-0.288-0.051-0.498-0.156c-0.205-0.097-0.309-0.211-0.309-0.349c0-0.066,0.011-0.113,0.029-0.148
	c0.021-0.035,0.033-0.083,0.033-0.153c0.247,0.07,0.498,0.135,0.745,0.203c0.251,0.064,0.519,0.099,0.807,0.099h0.25
	C90.789,24.726,90.653,24.896,90.384,24.896z M90.913,21.78c-0.084,0.134-0.177,0.238-0.282,0.301
	c-0.104,0.066-0.257,0.098-0.462,0.098c-0.292-0.064-0.704-0.098-1.244-0.098c-0.536,0-0.807-0.167-0.807-0.502
	c0-0.398,0.112-0.65,0.343-0.75c0.226-0.105,0.443-0.152,0.65-0.152c0.292,0,0.58,0.1,0.872,0.301
	c0.288,0.203,0.598,0.302,0.931,0.302V21.78z"/>
<path fill="#FFFFFF" d="M103.71,82.501c0.386-0.334,0.578-0.811,0.578-1.432c0-0.49-0.122-0.895-0.368-1.203
	c-0.247-0.309-0.563-0.533-0.95-0.67c-0.387-0.135-0.8-0.203-1.239-0.203h-2.688v6.996h0.589v-2.83h1.949l2.439,2.83h0.74
	l-2.488-2.879C102.844,83.038,103.324,82.833,103.71,82.501z M99.641,82.591v-3.029h2.13c0.539,0,0.994,0.117,1.363,0.354
	c0.371,0.236,0.556,0.623,0.556,1.154c0,0.533-0.187,0.922-0.56,1.16c-0.376,0.242-0.827,0.361-1.359,0.361H99.641z"/>
<path fill="#FFFFFF" d="M66.186,78.993l-3.118,6.996h0.641l0.838-1.881h3.949l0.83,1.881h0.638l-3.108-6.996H66.186z M64.779,83.548
	l1.647-3.727l0.09-0.223l0.09,0.223l1.648,3.727H64.779z"/>
<path fill="#FFFFFF" d="M249.857,0.991L239.106,57.26h10.769l2.076-12.378h8.827l2.078,12.378h10.767L262.875,0.991H249.857z
	 M242.949,48.889h-0.065h-0.188c-0.081,0-0.127-0.032-0.127-0.098h0.067c0.04,0,0.071-0.02,0.092-0.052
	c0.022-0.03,0.073-0.05,0.155-0.05c0.041,0,0.065,0.035,0.065,0.102V48.889z M244.066,55.318c-0.087,0-0.21-0.065-0.375-0.204
	c-0.166-0.129-0.249-0.367-0.249-0.7c0-0.136,0.063-0.204,0.188-0.204c0.205,0,0.37,0.087,0.496,0.253
	c0.123,0.171,0.246,0.319,0.374,0.452C244.455,55.18,244.314,55.318,244.066,55.318z M247.76,51.049
	c-0.188,0.101-0.322,0.149-0.402,0.149c-0.082,0-0.122-0.063-0.122-0.201l0.061-0.201c-0.085,0-0.126-0.063-0.126-0.199
	c0.041,0,0.083-0.028,0.126-0.099c-0.043-0.068-0.061-0.134-0.061-0.206c0-0.124,0.04-0.157,0.122-0.096
	c0.08,0.062,0.121,0.032,0.121-0.104h0.063h0.25c0.161,0,0.245,0.104,0.245,0.305C248.037,50.732,247.948,50.952,247.76,51.049z
	 M247.916,46.381c-0.169,0-0.384-0.033-0.654-0.099c-0.271-0.065-0.537-0.169-0.808-0.302c-0.269-0.137-0.493-0.284-0.683-0.45
	c-0.184-0.169-0.278-0.355-0.278-0.555c0-0.132,0.083-0.202,0.245-0.202c0.086,0,0.181,0.017,0.279,0.047
	c0.105,0.04,0.201,0.057,0.282,0.057c0.331,0.134,0.683,0.199,1.058,0.199c0.206,0,0.383-0.017,0.525-0.05
	c0.146-0.032,0.3-0.084,0.468-0.149c0.081,0.134,0.166,0.183,0.249,0.149c0.082-0.032,0.123,0.017,0.123,0.148
	c0,0.339-0.095,0.62-0.281,0.856C248.258,46.264,248.079,46.381,247.916,46.381z M248.847,53.808l-0.063,0.103
	c-0.043,0-0.061-0.035-0.061-0.103l0.061-0.097h0.063V53.808z M250.024,50.597c0,0.136-0.06,0.199-0.185,0.199h-0.247h-0.124
	c-0.085-0.129-0.146-0.211-0.188-0.251c-0.041-0.03-0.104-0.082-0.185-0.147c0.041-0.201,0.101-0.305,0.185-0.305h0.251h0.123v0.199
	h0.062h0.062c0.081,0,0.122,0.037,0.122,0.105c0,0.065,0.042,0.101,0.124,0.101V50.597z M250.711,41.864
	c0,0.264-0.106,0.436-0.312,0.502c-0.208,0.063-0.435,0.098-0.684,0.098c-0.289,0-0.551-0.083-0.775-0.248
	c-0.227-0.168-0.341-0.352-0.341-0.553c0.205-0.066,0.434-0.166,0.681-0.301c0.251-0.135,0.477-0.201,0.685-0.201
	c0.288,0,0.535,0.168,0.746,0.502V41.864z M250.494,35.989c-0.19,0.036-0.364,0.053-0.529,0.053c-0.413,0-0.701-0.137-0.869-0.404
	c0.081-0.268,0.196-0.402,0.34-0.402c0.146,0,0.26-0.032,0.343-0.099c0.081,0.137,0.187,0.189,0.311,0.149
	c0.123-0.033,0.208,0.02,0.248,0.148c0.208,0.139,0.415,0.308,0.621,0.506C250.834,35.94,250.681,35.955,250.494,35.989z
	 M262.57,14.655c-0.328,0.203-0.536,0.303-0.621,0.303c-0.084,0-0.185-0.018-0.309-0.052c-0.124-0.031-0.183-0.152-0.183-0.354
	c0-0.129,0.037-0.197,0.122-0.197c0.208,0,0.402,0,0.587,0C262.357,14.354,262.488,14.453,262.57,14.655z M261.266,7.528
	c0.124-0.205,0.314-0.302,0.562-0.302c0.084,0,0.164,0.015,0.248,0.048c0.082,0.035,0.124,0.219,0.124,0.555
	c-0.082,0.131-0.136,0.25-0.157,0.352c-0.016,0.098-0.07,0.146-0.151,0.146h-0.063c-0.085,0.07-0.167,0.102-0.248,0.102
	c-0.085,0-0.167,0-0.249,0c-0.29,0-0.459-0.064-0.499-0.199C260.999,7.96,261.144,7.727,261.266,7.528z M259.066,8.633
	c0.017-0.204,0.131-0.306,0.34-0.306h0.307h0.065c0.042,0.134,0.092,0.188,0.152,0.15c0.063-0.031,0.117,0.02,0.157,0.155
	c-0.085,0.2-0.136,0.366-0.157,0.499c-0.019,0.139-0.07,0.27-0.152,0.405h-0.188h-0.374c-0.206,0-0.331-0.136-0.37-0.405
	C258.968,8.999,259.043,8.833,259.066,8.633z M256.612,6.624c0.124-0.068,0.225-0.1,0.307-0.1c0.166,0,0.354,0.166,0.562,0.5
	c-0.084,0.202-0.25,0.299-0.498,0.299h-0.246h-0.188c-0.166-0.131-0.248-0.299-0.248-0.5C256.383,6.759,256.488,6.69,256.612,6.624z
	 M255.184,11.44c0.126-0.063,0.183-0.166,0.183-0.295h0.065h0.436c0.079,0,0.124,0.062,0.124,0.195
	c-0.124,0.336-0.354,0.507-0.682,0.507c-0.047,0-0.105,0-0.189,0s-0.122-0.034-0.122-0.106
	C254.998,11.61,255.057,11.508,255.184,11.44z M255.928,16.665c-0.126,0.333-0.25,0.499-0.374,0.499
	c-0.04-0.065-0.062-0.231-0.062-0.499c0-0.137,0.085-0.203,0.251-0.203C255.867,16.462,255.928,16.528,255.928,16.665z
	 M252.387,17.563c0.084,0,0.166-0.064,0.248-0.197c0.167,0.133,0.3,0.217,0.405,0.248c0.104,0.038,0.192,0.152,0.281,0.357v0.097
	c0,0.132-0.042,0.22-0.127,0.253c-0.081,0.033-0.168,0.115-0.248,0.254c-0.208-0.139-0.375-0.221-0.496-0.254
	c-0.124-0.033-0.186-0.219-0.186-0.555C252.265,17.634,252.305,17.563,252.387,17.563z M252.511,21.183
	c0.082,0,0.209,0.064,0.375,0.199h0.124l0.059,0.197v0.1h-0.183h-0.314c-0.206,0-0.332-0.1-0.369-0.297
	C252.284,21.247,252.387,21.183,252.511,21.183z M252.202,31.221c0-0.132,0.03-0.22,0.091-0.253c0.061-0.034,0.094-0.111,0.094-0.25
	h0.063h0.372c0.082,0,0.124,0.033,0.124,0.102v0.304c-0.082,0.063-0.164,0.147-0.248,0.249c-0.084,0.1-0.166,0.148-0.248,0.148
	C252.284,31.521,252.202,31.419,252.202,31.221z M252.265,34.838c0-0.138,0.028-0.236,0.089-0.306
	c0.063-0.064,0.117-0.131,0.157-0.199h0.061h0.251c0.164,0,0.246,0.068,0.246,0.199v0.306c-0.164,0.135-0.392,0.196-0.682,0.196
	L252.265,34.838z M253.598,43.419c0.021,0.038-0.012,0.053-0.094,0.053s-0.146-0.015-0.183-0.053
	c-0.042-0.033-0.104-0.051-0.189-0.051c0-0.066-0.01-0.116-0.03-0.148c-0.021-0.033-0.033-0.082-0.033-0.152
	c0-0.134,0.063-0.219,0.185-0.254c0.127-0.026,0.169-0.043,0.127-0.043c0.166,0,0.251,0.133,0.251,0.398
	C253.586,43.302,253.579,43.386,253.598,43.419z M260.182,16.161c-0.188,0.07-0.321,0.103-0.403,0.103
	c-0.25,0-0.414-0.087-0.496-0.252c-0.085-0.169-0.147-0.368-0.189-0.606c-0.04-0.232-0.115-0.43-0.216-0.6
	c-0.104-0.165-0.303-0.254-0.591-0.254c-0.332,0-0.611,0.104-0.838,0.307c-0.228,0.197-0.509,0.299-0.836,0.299
	c-0.045,0-0.087-0.018-0.124-0.049c-0.022-0.017-0.043-0.018-0.065-0.027l3.176,21.066h-6.507l3.27-21.478l0.011,0.074
	c0.025-0.527,0.112-0.834,0.268-0.894c0.188-0.064,0.385-0.164,0.591-0.304h0.25h0.685c0.248,0,0.464,0.04,0.65,0.105
	c0.186,0.065,0.319,0.269,0.401,0.602c0.208,0.334,0.468,0.518,0.777,0.552c0.313,0.036,0.466,0.382,0.466,1.055
	C260.46,15.997,260.369,16.094,260.182,16.161z M260.708,12.043h-0.185c-0.042-0.064-0.063-0.131-0.063-0.195
	c0-0.204,0.052-0.34,0.157-0.407c0.099-0.063,0.194-0.1,0.281-0.1c0.203,0,0.367,0.036,0.491,0.1
	c0.127,0.067,0.251,0.17,0.375,0.301c0,0.271-0.166,0.402-0.499,0.402c-0.079,0-0.173-0.018-0.276-0.048
	C260.884,12.061,260.79,12.043,260.708,12.043z M262.386,44.773c0,0.27-0.105,0.401-0.31,0.401c-0.496,0-0.89-0.232-1.178-0.703
	c0-0.134,0.143-0.265,0.433-0.403h0.127c0.077,0,0.183-0.032,0.307-0.096c0.127-0.065,0.228-0.101,0.312-0.101
	c0.124,0,0.225,0.065,0.31,0.196V44.773z M262.76,32.526c-0.044,0-0.105-0.066-0.189-0.2c0-0.136,0.084-0.202,0.251-0.202
	c0.084,0,0.166,0.066,0.248,0.202C262.905,32.46,262.8,32.526,262.76,32.526z M268.69,51.402c0.021,0.062,0.009,0.096-0.03,0.096
	c-0.085,0-0.127-0.033-0.127-0.096v-0.099c0-0.204,0.063-0.307,0.188-0.307V51.1c0,0.068,0.01,0.099,0.033,0.099
	c0.019,0,0.03,0.037,0.03,0.105C268.699,51.304,268.672,51.334,268.69,51.402z M271.3,50.597c0.019,0,0.03-0.066,0.03-0.199
	c0.412,0,0.663,0.133,0.745,0.398c-0.125,0.201-0.272,0.304-0.438,0.304c-0.042,0-0.11-0.035-0.213-0.103
	c-0.105-0.062-0.157-0.159-0.157-0.298C271.267,50.634,271.276,50.597,271.3,50.597z M269.28,40.859l0.062,0.199l-0.062,0.103
	c-0.039,0-0.061-0.032-0.061-0.103C269.22,40.991,269.241,40.929,269.28,40.859z M267.168,29.111h0.065h0.246
	c0.082,0,0.124,0.067,0.124,0.202c-0.082,0-0.147,0.016-0.188,0.05c-0.042,0.036-0.105,0.05-0.183,0.05
	c-0.044,0-0.065-0.066-0.065-0.199V29.111z M267.29,32.425c0.211,0,0.313,0.07,0.313,0.199c0,0.339-0.07,0.453-0.218,0.354
	c-0.146-0.102-0.278-0.086-0.405,0.053c0-0.139-0.007-0.203-0.028-0.203c-0.023,0-0.032-0.033-0.032-0.1
	C266.92,32.526,267.044,32.425,267.29,32.425z M266.547,38.9c0.043,0.036,0.063,0.018,0.063-0.05v-0.103
	c0.33-0.13,0.536-0.198,0.623-0.198c0.124,0,0.223,0.02,0.307,0.05c0.082,0.034,0.206,0.087,0.373,0.148v0.103
	c0,0.336-0.092,0.518-0.276,0.553c-0.19,0.035-0.363,0.053-0.529,0.053c-0.127,0-0.263-0.033-0.405-0.102
	c-0.146-0.068-0.214-0.168-0.214-0.3C266.488,38.918,266.508,38.868,266.547,38.9z M267.416,41.964v0.098l-0.059,0.1
	c-0.047,0-0.067-0.131-0.067-0.4C267.374,41.761,267.416,41.831,267.416,41.964z M264.934,37.042h0.059h0.253h0.061
	c0,0.071-0.014,0.121-0.032,0.154c-0.019,0.031-0.028,0.08-0.028,0.148h-0.063h-0.189c-0.037,0-0.059-0.068-0.059-0.199V37.042z
	 M264.746,40.859c0.042,0,0.063-0.065,0.063-0.201v-0.1h0.124h0.372h0.37c0.087,0.069,0.127,0.132,0.127,0.198v0.404v0.1
	c-0.211,0.199-0.375,0.301-0.497,0.301c-0.293,0-0.496-0.102-0.62-0.301C264.686,40.991,264.704,40.859,264.746,40.859z
	 M264.247,43.973l0.065,0.096c0.249-0.131,0.497-0.196,0.745-0.196c0.454,0,0.848,0.101,1.178,0.305
	c0.331,0.199,0.727,0.295,1.181,0.295s0.879-0.115,1.274-0.352c0.391-0.231,0.772-0.352,1.147-0.352
	c0.293,0,0.499,0.169,0.623,0.507c-0.124,0.335-0.352,0.515-0.687,0.545c-0.33,0.04-0.618,0.122-0.866,0.256
	c-0.124-0.065-0.271-0.134-0.436-0.199c-0.333-0.139-0.579-0.206-0.745-0.206c-0.332,0-0.651,0.087-0.965,0.258
	c-0.307,0.164-0.63,0.246-0.96,0.246c-0.211,0-0.457-0.099-0.745-0.298h-0.248c-0.415,0-0.621-0.234-0.621-0.7
	C264.188,44.111,264.21,44.036,264.247,43.973z M263.254,42.366c0,0.063,0.04,0.098,0.124,0.098v0.2
	c0,0.132-0.084,0.198-0.248,0.198c-0.082,0-0.121-0.092-0.121-0.297c0-0.064,0.039-0.167,0.121-0.301
	C263.217,42.265,263.254,42.3,263.254,42.366z M263.193,20.276c-0.042,0.137-0.166,0.202-0.372,0.202h-0.37h-0.19v-0.101
	c0-0.135,0.02-0.184,0.066-0.151c0.037,0.03,0.059-0.018,0.059-0.149h0.126h0.434C263.069,20.077,263.151,20.146,263.193,20.276z"/>
<rect x="167.722" y="78.993" fill="#FFFFFF" width="0.59" height="6.996"/>
<path fill="#FFFFFF" d="M157.74,44.071h-0.125h-0.25c-0.165,0-0.248-0.164-0.248-0.501c0-0.134,0.102-0.236,0.309-0.307
	c0.208-0.065,0.353-0.095,0.436-0.095c0.026,0,0.041,0.018,0.059,0.03v-1.383h-14.947V57.26h14.947V43.778
	C157.878,43.848,157.817,43.941,157.74,44.071z M148.115,54.021H146.3v-8.984h1.815V54.021z M151.384,54.044h-1.795v-4.251h1.795
	V54.044z M151.384,48.262h-1.795v-3.226h1.795V48.262z M152.708,55.019c-0.167,0-0.248-0.139-0.248-0.405h0.248
	c0.084,0,0.124,0.037,0.124,0.099C152.832,54.91,152.792,55.019,152.708,55.019z M154.591,54.021h-1.635v-5.42h1.635V54.021z
	 M154.591,47.104h-1.635v-2.068h1.635V47.104z M155.222,44.82c-0.019,0.035-0.069,0.052-0.156,0.052
	c-0.247,0-0.433-0.099-0.56-0.297c0-0.139,0.065-0.204,0.186-0.204h0.313h0.061c0,0.204,0.041,0.271,0.126,0.204
	c0.081-0.066,0.142,0,0.185,0.198C155.297,44.773,155.241,44.79,155.222,44.82z"/>
<path fill="#FFFFFF" d="M156.771,2.834c-1.683-1.265-3.768-1.901-6.196-1.901c-2.435,0-4.514,0.637-6.174,1.901
	c-1.912,1.427-2.881,3.375-2.881,5.787v16.306c0,2.412,0.969,4.36,2.874,5.789c1.67,1.264,3.746,1.902,6.181,1.902
	c2.429,0,4.514-0.635,6.196-1.898c1.896-1.436,2.858-3.381,2.858-5.793V8.621C159.629,6.209,158.667,4.267,156.771,2.834z
	 M148.674,6.12c0.164,0,0.338,0.035,0.524,0.102c0.187,0.065,0.28,0.27,0.28,0.602c-0.166,0.133-0.31,0.234-0.433,0.305
	c-0.124,0.064-0.293,0.099-0.498,0.099c-0.125-0.065-0.187-0.271-0.187-0.603C148.361,6.287,148.464,6.12,148.674,6.12z
	 M145.317,6.823c-0.205,0-0.312-0.1-0.312-0.305c0-0.128,0.086-0.248,0.25-0.351c0.165-0.097,0.35-0.147,0.558-0.147
	c0.206,0,0.312,0.064,0.312,0.201C145.916,6.624,145.65,6.823,145.317,6.823z M153.143,15.659c-0.041,0-0.071,0.01-0.103,0.018
	v9.086c0,0.59-0.205,1.008-0.672,1.361c-0.945,0.729-2.642,0.729-3.59,0c-0.451-0.344-0.649-0.768-0.649-1.361V8.772
	c0-0.58,0.204-1.005,0.649-1.348c0.47-0.365,1.059-0.543,1.797-0.543c0.734,0,1.319,0.178,1.799,0.547
	c0.455,0.345,0.667,0.771,0.667,1.344v6.554c0.064,0.04,0.103,0.112,0.103,0.229V15.659z M153.392,7.627
	c0-0.067,0.02-0.134,0.061-0.202c0.167,0,0.25,0.068,0.25,0.202c0.042,0,0.062,0.015,0.062,0.05s0.02,0.049,0.062,0.049
	c0.041,0,0.061-0.014,0.061-0.049s0.021-0.05,0.063-0.05v0.202c0,0.131-0.125,0.196-0.372,0.196c-0.042,0-0.085-0.033-0.126-0.097
	C153.412,7.862,153.392,7.765,153.392,7.627z M154.572,11.341c-0.125,0.066-0.248,0.138-0.372,0.205
	c-0.126,0.064-0.25,0.098-0.374,0.098c-0.042,0-0.102,0-0.186,0c-0.083,0-0.125-0.033-0.125-0.098c0-0.139,0.125-0.271,0.372-0.406
	c0.252-0.133,0.457-0.199,0.62-0.199l0.065,0.199V11.341z"/>
<path fill="#FFFFFF" d="M142.944,35.555v3.567h14.936v-3.567h-5.815c0.12,0.065,0.208,0.148,0.242,0.261v0.1
	c0,0.27-0.041,0.421-0.123,0.453c-0.082,0.035-0.167,0.052-0.25,0.052c-0.164,0-0.332-0.204-0.494-0.604
	c0-0.116,0.01-0.195,0.025-0.261H142.944z"/>
<path fill="#FFFFFF" d="M313.175,0.991v8.943h10.79V57.26h10.572V13.104c-0.108-0.042-0.21-0.115-0.298-0.26
	c-0.082-0.064-0.164-0.161-0.246-0.302c0-0.493,0.188-0.751,0.544-0.786V9.935h10.825V0.991H313.175z M326.977,14.152
	c-0.087,0.202-0.211,0.301-0.377,0.301h-0.181h-0.253c-0.246,0-0.394-0.099-0.433-0.301c0-0.605,0.104-0.939,0.309-1.004
	c0.209,0.064,0.438,0.097,0.684,0.097c0.251,0,0.415,0.139,0.497,0.407C327.141,13.79,327.059,13.947,326.977,14.152z
	 M327.286,10.233c-0.167,0.138-0.396,0.203-0.687,0.203c-0.119-0.065-0.181-0.163-0.181-0.297c0-0.137,0.038-0.22,0.12-0.254
	c0.084-0.03,0.166-0.086,0.25-0.15c0,0.064,0.063,0.097,0.188,0.097h0.246c0.084,0,0.124,0.04,0.124,0.103
	C327.347,10.072,327.323,10.173,327.286,10.233z M328.529,16.56c-0.211,0-0.313-0.064-0.313-0.195c0-0.066,0.012-0.086,0.035-0.053
	c0.019,0.035,0.025-0.014,0.025-0.15c0.253,0,0.396,0.064,0.438,0.203C328.628,16.495,328.569,16.56,328.529,16.56z M328.991,13.701
	c-0.144,0.035-0.319,0.05-0.527,0.05c-0.206,0-0.37-0.099-0.496-0.301c0-0.066-0.021-0.132-0.059-0.205
	c0-0.131,0.07-0.312,0.215-0.547c0.146-0.236,0.258-0.354,0.34-0.354c0.208,0,0.365,0.084,0.466,0.252
	c0.104,0.166,0.197,0.321,0.279,0.453C329.209,13.45,329.139,13.667,328.991,13.701z M330.204,7.175
	c0.248-0.164,0.539-0.253,0.866-0.253c0,0.138,0.035,0.188,0.094,0.155c0.065-0.033,0.117-0.018,0.159,0.051
	c0,0.134,0.02,0.197,0.062,0.197c0,0.338-0.146,0.537-0.436,0.604c-0.288,0.067-0.6,0.103-0.931,0.103
	c-0.33,0-0.541-0.136-0.625-0.404C329.688,7.493,329.956,7.345,330.204,7.175z M330.759,12.345c0,0.135-0.016,0.198-0.059,0.198
	h-0.061l-0.061,0.106v0.098c-0.167,0-0.251-0.168-0.251-0.502c0.042,0,0.084-0.015,0.124-0.047c0.042-0.035,0.104-0.055,0.188-0.055
	C330.722,12.144,330.759,12.213,330.759,12.345z M331.07,22.484c0,0.339-0.089,0.608-0.276,0.805
	c-0.188,0.198-0.402,0.301-0.65,0.301c-0.249,0-0.455-0.064-0.623-0.2c0.079-0.47,0.271-0.765,0.56-0.905
	c0.29-0.13,0.536-0.266,0.744-0.403c0,0.138,0.043,0.204,0.125,0.204h0.121V22.484z M330.855,18.925
	c-0.062-0.105-0.194-0.154-0.403-0.154h-0.496c-0.164,0-0.258-0.114-0.281-0.354c-0.019-0.229-0.075-0.381-0.154-0.445
	c0-0.202,0.079-0.289,0.248-0.255c0.166,0.036,0.285,0.018,0.375-0.055c0.163,0.406,0.456,0.61,0.866,0.61
	c0.253,0,0.447-0.137,0.59-0.406c0.146-0.269,0.323-0.4,0.529-0.4c0.085,0,0.239,0.07,0.464,0.196
	c0.228,0.14,0.342,0.31,0.342,0.508c-0.206,0.269-0.463,0.486-0.774,0.649c-0.31,0.172-0.611,0.252-0.897,0.252
	C331.052,19.071,330.921,19.024,330.855,18.925z M332.874,27.003c0,0.202-0.104,0.304-0.31,0.304h-0.436h-0.187
	c0-0.136-0.02-0.2-0.062-0.2c-0.04,0-0.061-0.033-0.061-0.104c0.079-0.064,0.183-0.135,0.309-0.199
	c0.124-0.066,0.228-0.103,0.312-0.103C332.645,26.701,332.79,26.804,332.874,27.003z M332.253,52.103
	c-0.081,0-0.154-0.05-0.218-0.147c-0.059-0.104-0.136-0.155-0.215-0.155c0.164-0.269,0.328-0.397,0.496-0.397
	c-0.084,0-0.056,0.032,0.094,0.098c0.146,0.066,0.234,0.169,0.279,0.3C332.564,52.004,332.42,52.103,332.253,52.103z
	 M332.809,39.251c0,0.139-0.019,0.188-0.061,0.156c-0.04-0.033-0.082,0.016-0.125,0.146h-0.059c0-0.065-0.021-0.098-0.061-0.098
	c-0.084,0-0.126-0.033-0.126-0.102c0.042-0.068,0.079-0.15,0.126-0.252c0.04-0.102,0.101-0.149,0.186-0.149l0.119,0.199V39.251z
	 M333.31,33.133c-0.248,0-0.445,0.062-0.59,0.198c-0.146,0.135-0.363,0.199-0.651,0.199c-0.084,0-0.169-0.015-0.248-0.05
	c-0.087-0.034-0.124-0.116-0.124-0.255c0-0.128,0.07-0.233,0.215-0.298c0.144-0.065,0.279-0.101,0.405-0.101h0.492
	c0.089,0,0.161-0.014,0.223-0.049c0.061-0.034,0.152-0.051,0.278-0.051c0.124,0,0.186,0.037,0.186,0.1
	C333.495,32.961,333.434,33.065,333.31,33.133z M333.495,15.056v0.205c0,0.132-0.021,0.197-0.062,0.197
	c-0.044,0-0.065-0.017-0.065-0.053c0-0.03-0.019-0.048-0.059-0.048v0.101c-0.332,0.137-0.687,0.168-1.057,0.098
	c-0.372-0.064-0.665-0.031-0.868,0.105c-0.209-0.066-0.422-0.12-0.651-0.154c-0.229-0.033-0.342-0.217-0.342-0.549
	c0-0.336,0.103-0.535,0.309-0.604c0.206-0.067,0.37-0.101,0.497-0.101c0.206,0,0.424,0.033,0.653,0.101
	c0.228,0.068,0.466,0.099,0.714,0.099c0.413,0,0.727,0.169,0.931,0.505V15.056z M335.048,9.832c-0.291,0-0.436-0.13-0.436-0.4
	c0-0.263,0.096-0.415,0.28-0.447c0.186-0.032,0.321-0.05,0.403-0.05c0.126,0,0.188,0.064,0.188,0.197
	C335.398,9.604,335.254,9.832,335.048,9.832z M335.483,4.112c-0.042,0.066-0.085,0.104-0.127,0.104
	c-0.082,0-0.121-0.104-0.121-0.306c0-0.128,0.019-0.199,0.061-0.199c0.126,0,0.188,0.105,0.188,0.301V4.112z"/>
<path fill="#FFFFFF" d="M199.628,39.933h-10.148v4.4c0,1.396-0.561,2.485-1.709,3.331c-1.154,0.843-2.512,1.253-4.146,1.253
	c-1.636,0-2.989-0.41-4.147-1.253c-1.15-0.846-1.708-1.935-1.708-3.331v-3.429c-0.055,0.033-0.106,0.055-0.154,0.055l-0.125-0.195
	c0-0.333,0.096-0.539,0.279-0.636v-26.21c0-1.407,0.532-2.5,1.622-3.345c1.081-0.835,2.394-1.238,4.021-1.238
	c1.623,0,2.939,0.403,4.016,1.24c1.096,0.843,1.629,1.936,1.629,3.343v4.401h10.148v-4.685c0-4.249-1.654-7.683-4.927-10.208
	C191.308,1.152,187.579,0,183.201,0c-4.382,0-8.109,1.152-11.087,3.427c-3.264,2.525-4.918,5.959-4.918,10.208v30.982
	c0,4.255,1.704,7.691,5.067,10.211c2.994,2.27,6.748,3.422,11.148,3.422c4.401,0,8.163-1.147,11.183-3.419
	c3.339-2.525,5.033-5.959,5.033-10.214V39.933z M185.376,5.22c0.127,0,0.183-0.066,0.183-0.204h0.128
	c0.041,0,0.089-0.015,0.154-0.048c0.06-0.033,0.113-0.049,0.154-0.049c0.082,0,0.146,0.031,0.189,0.097
	c-0.043,0.468-0.21,0.769-0.498,0.906c-0.086,0-0.184,0-0.311,0c-0.125,0-0.187-0.17-0.187-0.501
	C185.189,5.286,185.251,5.22,185.376,5.22z M183.696,5.922c0.041,0,0.064,0.032,0.064,0.099v0.102c-0.084,0-0.122,0.033-0.122,0.1
	c0,0.068-0.045,0.101-0.125,0.101h-0.064C183.449,6.058,183.534,5.922,183.696,5.922z M176.185,18.17l-0.063,0.103
	c-0.04,0-0.062-0.103-0.062-0.301C176.144,17.972,176.185,18.036,176.185,18.17z M175.844,31.823
	c0.06-0.066,0.091-0.168,0.091-0.302c0.288,0,0.434,0.103,0.434,0.302s-0.104,0.301-0.309,0.301c-0.21,0-0.308-0.033-0.308-0.102
	C175.752,31.958,175.78,31.894,175.844,31.823z M173.822,34.333v-0.1h0.065c0.039,0,0.072-0.013,0.09-0.049
	c0.021-0.034,0.053-0.053,0.092-0.053c0.084,0,0.15,0.036,0.191,0.102c0,0.066-0.014,0.113-0.034,0.148
	c-0.021,0.039-0.03,0.088-0.03,0.152c-0.084,0-0.166,0-0.248,0C173.864,34.534,173.822,34.47,173.822,34.333z M174.634,40.56
	c0,0.137-0.046,0.204-0.126,0.204c-0.126,0-0.179,0-0.156,0c0.019,0-0.011-0.067-0.091-0.204c-0.041,0.064-0.084,0.096-0.127,0.096
	l-0.124-0.398c0-0.131,0.082-0.198,0.251-0.198c0.037,0,0.097,0.032,0.183,0.101c0,0.063,0.041,0.098,0.125,0.098
	c0.042,0,0.065,0.032,0.065,0.102V40.56z M176.312,46.282c-0.168,0-0.252-0.139-0.252-0.4v-0.105c0.204,0,0.309,0.072,0.309,0.204
	C176.368,46.113,176.349,46.217,176.312,46.282z M176.68,38.55c0,0.137-0.069,0.248-0.217,0.354
	c-0.146,0.098-0.259,0.151-0.342,0.151c-0.165,0-0.271-0.067-0.311-0.204c-0.042,0.067-0.083,0.103-0.124,0.103
	c-0.042,0-0.071-0.083-0.09-0.247c-0.024-0.174-0.035-0.32-0.035-0.455c0-0.067,0.011-0.103,0.035-0.103
	c0.019,0,0.028-0.032,0.028-0.103h0.127c0.079,0,0.171-0.015,0.275-0.049c0.102-0.032,0.195-0.048,0.284-0.048
	c0.245,0,0.368,0.167,0.368,0.503V38.55z M177.673,47.587c-0.081-0.065-0.175-0.15-0.277-0.251
	c-0.104-0.099-0.158-0.316-0.158-0.655h0.126c0.206,0,0.352,0.107,0.434,0.304c0.084,0.204,0.188,0.368,0.312,0.504
	c0,0.068-0.042,0.099-0.124,0.099h-0.248H177.673z M178.482,54.414c0-0.136-0.064-0.204-0.187-0.204s-0.229-0.131-0.311-0.396
	c0.082-0.136,0.228-0.206,0.433-0.206c0.291,0,0.52,0.136,0.684,0.405C178.977,54.278,178.771,54.414,178.482,54.414z M182.21,53.91
	c-0.127,0.136-0.229,0.202-0.313,0.202c-0.208,0-0.403-0.099-0.589-0.298c-0.186-0.206-0.278-0.473-0.278-0.806
	c0-0.204,0.081-0.335,0.244-0.4c0.209,0.134,0.387,0.196,0.532,0.196c0.142,0,0.258,0.134,0.338,0.403
	c0.044,0,0.066-0.015,0.066-0.05s0.019-0.049,0.06-0.049s0.053,0.065,0.031,0.201c-0.021,0.132,0.01,0.197,0.095,0.197
	C182.396,53.642,182.335,53.779,182.21,53.91z M184.006,54.812c-0.204,0-0.31-0.199-0.31-0.603c0.041-0.062,0.146-0.098,0.31-0.098
	c0.212,0,0.313,0.098,0.313,0.302C184.319,54.684,184.218,54.812,184.006,54.812z M186.682,52.756
	c-0.167-0.03-0.291,0.019-0.373,0.149c-0.043-0.065-0.062-0.131-0.062-0.198c0-0.132,0.062-0.268,0.183-0.401
	c0.085-0.067,0.167-0.103,0.252-0.103c0.08,0,0.122,0.035,0.122,0.103c0,0.134,0.02,0.181,0.064,0.15
	c0.038-0.033,0.061-0.017,0.061,0.049C186.929,52.707,186.845,52.791,186.682,52.756z"/>
<path fill="#FFFFFF" d="M133.88,15.986c-0.011,0.045-0.044,0.073-0.111,0.073h-0.252h-0.061c-0.084-0.13-0.156-0.217-0.216-0.252
	c-0.063-0.033-0.094-0.148-0.094-0.352c0-0.195,0.121-0.301,0.371-0.301c0.206,0.202,0.312,0.369,0.312,0.504
	c0,0.064,0.007,0.115,0.032,0.148c0.012,0.023,0.015,0.063,0.019,0.1V0.933h-10.536v30.48l-12.864-30.48h-9.031v56.269h10.571V46.88
	c-0.05,0-0.083,0-0.144,0c-0.15,0-0.22-0.132-0.22-0.398c0-0.068,0.063-0.204,0.186-0.403c0.043,0,0.084,0.017,0.126,0.05
	c0.017,0.015,0.035,0.013,0.052,0.021v-2.781h-0.178c-0.081,0-0.197,0.101-0.342,0.3c-0.143,0.197-0.34,0.305-0.587,0.305
	c-0.333,0-0.624-0.107-0.871-0.305c-0.04,0.197-0.096,0.27-0.156,0.197c-0.061-0.063-0.136-0.028-0.217,0.107
	c0-0.136-0.116-0.238-0.343-0.305c-0.229-0.063-0.444-0.103-0.652-0.103c-0.288,0-0.432,0.169-0.432,0.503
	c0,0.335,0.092,0.574,0.28,0.703c0.186,0.134,0.279,0.368,0.279,0.702c-0.293,0.132-0.622,0.202-0.993,0.202
	c-0.375,0-0.706,0.136-0.996,0.402c-0.168,0-0.257-0.098-0.277-0.302c-0.023-0.201-0.075-0.398-0.159-0.604
	c0.042-0.201,0.125-0.352,0.251-0.449c0.125-0.099,0.259-0.186,0.403-0.251c0.146-0.068,0.271-0.164,0.374-0.302
	c0.102-0.134,0.155-0.368,0.155-0.701c0-0.135-0.073-0.337-0.221-0.606c-0.142-0.269-0.328-0.517-0.559-0.748
	c-0.224-0.238-0.455-0.455-0.681-0.656c-0.228-0.197-0.426-0.301-0.59-0.301c-0.08,0-0.29,0.064-0.621,0.201v-0.098
	c-0.082,0-0.124-0.07-0.124-0.203c0-0.335,0.185-0.504,0.56-0.504c0.084,0,0.185,0.021,0.31,0.055
	c0.123,0.032,0.227,0.047,0.312,0.047c0.208,0.336,0.527,0.486,0.959,0.451c0.434-0.033,0.734,0.223,0.904,0.752
	c0.165,0.141,0.308,0.238,0.435,0.301c0.123,0.072,0.266,0.105,0.432,0.105c0.085,0,0.228-0.054,0.436-0.15
	c0.208-0.102,0.312-0.286,0.312-0.553c0-0.07-0.012-0.121-0.031-0.154c-0.023-0.031-0.034-0.078-0.034-0.146
	c0.166-0.471,0.312-0.74,0.436-0.805c0.126-0.067,0.312-0.102,0.56-0.102c0.086,0,0.208,0.069,0.374,0.199v0.102l0.061,0.099v0.304
	c0,0.203-0.061,0.335-0.185,0.4c-0.126,0.072-0.259,0.123-0.404,0.153c-0.146,0.032-0.279,0.1-0.405,0.198
	c-0.123,0.1-0.185,0.287-0.185,0.557c0,0.266,0.095,0.514,0.279,0.751c0.185,0.231,0.382,0.352,0.589,0.352
	c0.292,0,0.517-0.032,0.685-0.101c0.166-0.069,0.349-0.104,0.559-0.104c0.083,0,0.167-0.017,0.25-0.05
	c0.023-0.008,0.035,0.004,0.052,0.008V26.754l0.418,0.99c0.041-0.022,0.084-0.042,0.151-0.042c0.206,0,0.309,0.104,0.309,0.303
	c-0.042,0-0.074,0.018-0.09,0.048c-0.022,0.038-0.054,0.053-0.096,0.053c-0.04,0-0.081,0-0.121,0l12.292,29.096h8.997V15.986z
	 M110.475,47.28c0.084,0,0.146,0.049,0.187,0.154c0.042,0.099,0.084,0.188,0.125,0.246c0,0.138-0.041,0.271-0.125,0.405
	c-0.081,0.133-0.144,0.236-0.187,0.304c-0.165,0-0.247-0.138-0.247-0.407C110.228,47.517,110.31,47.28,110.475,47.28z
	 M110.166,56.315h0.186h0.25c0.204,0,0.349,0.104,0.434,0.303v0.103c0,0.136-0.084,0.202-0.249,0.202h-0.312h-0.062
	c-0.08-0.137-0.145-0.218-0.185-0.251c-0.042-0.033-0.062-0.119-0.062-0.253V56.315z M107.992,53.208h-0.185
	c-0.046,0-0.082,0.032-0.125,0.096c-0.207,0-0.354-0.129-0.436-0.402c0.167-0.129,0.312-0.194,0.436-0.194
	c0.206,0,0.353,0.098,0.434,0.302C108.115,53.143,108.074,53.208,107.992,53.208z M109.048,56.419H108.8h-0.061
	c-0.044-0.139-0.096-0.216-0.158-0.248c-0.06-0.035-0.092-0.087-0.092-0.155c0-0.198,0.083-0.3,0.25-0.3
	c0.163,0,0.37,0.137,0.617,0.401C109.318,56.315,109.212,56.419,109.048,56.419z M109.854,46.128
	c0.084-0.033,0.125,0.016,0.125,0.149v0.104c-0.041,0-0.102,0-0.188,0c-0.081,0-0.123-0.104-0.123-0.303
	C109.711,46.144,109.771,46.163,109.854,46.128z M108.178,47.483c0.124-0.067,0.227-0.101,0.311-0.101
	c0.206,0,0.312,0.101,0.312,0.298c-0.041,0.138-0.087,0.293-0.126,0.454c-0.041,0.171-0.146,0.255-0.31,0.255
	c-0.084-0.067-0.147-0.138-0.186-0.203c-0.126-0.065-0.186-0.204-0.186-0.403C107.992,47.652,108.052,47.549,108.178,47.483z
	 M107.336,49.393c0.274-0.136,0.471-0.204,0.592-0.204c0.25,0,0.477,0.134,0.684,0.4c0.082,0.073,0.188,0.105,0.31,0.105h0.434
	c0.289,0,0.457,0.099,0.498,0.298c-0.208,0.538-0.474,0.804-0.806,0.804c-0.166,0-0.271-0.031-0.309-0.102
	c0-0.065-0.096-0.098-0.282-0.098c-0.185,0-0.394-0.033-0.617-0.101c-0.229-0.068-0.437-0.155-0.625-0.253
	c-0.185-0.102-0.279-0.251-0.279-0.45C106.936,49.662,107.07,49.523,107.336,49.393z M104.206,38.249
	c0.08,0,0.161,0.099,0.245,0.301c0,0.266-0.051,0.416-0.154,0.451c-0.105,0.034-0.218,0.115-0.34,0.25
	c-0.167-0.264-0.252-0.436-0.252-0.503C103.705,38.413,103.871,38.249,104.206,38.249z M102.712,41.407
	c0,0.102-0.018,0.154-0.061,0.154c-0.082,0-0.136-0.031-0.156-0.104c-0.022-0.065-0.071-0.1-0.152-0.1h-0.063
	c0-0.201,0.063-0.301,0.185-0.301c0.041,0,0.124,0.1,0.247,0.301C102.712,41.373,102.712,41.379,102.712,41.407z M104.142,46.481
	c0,0.199-0.063,0.335-0.185,0.398h-0.125c-0.042,0-0.104,0.021-0.186,0.051c-0.084,0.03-0.17,0.047-0.247,0.047
	c-0.167,0-0.252-0.161-0.252-0.496c0.041-0.271,0.189-0.403,0.435-0.403c0.208,0,0.397,0.065,0.561,0.199V46.481z M105.976,51.245
	c-0.023,0.04-0.076,0.052-0.156,0.052c-0.084,0-0.125-0.099-0.125-0.3c0.205,0,0.331,0.067,0.372,0.201
	C106.025,51.198,105.994,51.212,105.976,51.245z M105.662,47.681c0.102,0,0.178-0.059,0.219-0.197h0.063
	c0.081,0,0.184-0.082,0.309-0.253c0.122-0.164,0.228-0.253,0.313-0.253c0.04,0,0.061,0.07,0.061,0.204v0.499
	c-0.042,0.271-0.146,0.454-0.312,0.555c-0.163,0.104-0.267,0.154-0.309,0.154c-0.334,0-0.498-0.171-0.498-0.503
	C105.507,47.753,105.559,47.681,105.662,47.681z M104.886,43.565c0.085,0.136,0.229,0.271,0.436,0.407
	c-0.125,0.26-0.273,0.398-0.436,0.398c0-0.063-0.075-0.139-0.215-0.201c-0.148-0.066-0.312-0.155-0.5-0.249
	c-0.184-0.103-0.349-0.187-0.495-0.253c-0.146-0.063-0.22-0.169-0.22-0.3c0-0.203,0.087-0.303,0.249-0.303
	c0.167,0,0.301,0.052,0.409,0.148c0.101,0.1,0.213,0.154,0.337,0.154C104.659,43.368,104.805,43.437,104.886,43.565z
	 M106.439,39.251c0,0.337-0.104,0.5-0.312,0.5c-0.123,0-0.229-0.114-0.308-0.348c-0.084-0.238-0.125-0.386-0.125-0.451
	c0-0.204,0.081-0.305,0.25-0.305c0.164,0,0.33,0.135,0.496,0.402V39.251z M108.739,34.132c0.082,0,0.123,0.066,0.123,0.201
	c0,0.129-0.022,0.235-0.062,0.301c-0.041,0.066-0.087,0.146-0.126,0.25c-0.041,0.102-0.102,0.15-0.185,0.15
	c-0.125,0-0.178-0.085-0.155-0.254c0.019-0.162,0.011-0.318-0.032-0.447C108.386,34.198,108.527,34.132,108.739,34.132z
	 M107.745,38.046c-0.167,0-0.332-0.051-0.499-0.148c-0.166-0.104-0.248-0.22-0.248-0.352V37.04v-0.098
	c0.126-0.203,0.292-0.303,0.495-0.303c0.334,0,0.541,0.167,0.622,0.506v0.098v0.604C108.115,37.979,107.992,38.046,107.745,38.046z
	 M108.986,39.45c0,0.138-0.033,0.301-0.095,0.506c-0.061,0.203-0.091,0.367-0.091,0.5c-0.208,0-0.395-0.018-0.559-0.05
	c-0.167-0.034-0.25-0.216-0.25-0.556c0-0.198,0.053-0.346,0.156-0.447c0.102-0.102,0.197-0.254,0.28-0.451h0.061h0.312
	c0.123,0,0.186,0.098,0.186,0.299V39.45z M110.352,33.727h-0.247h-0.125c-0.041-0.063-0.061-0.135-0.061-0.198v-0.1
	c0-0.203,0.061-0.301,0.186-0.301c0.205,0,0.37,0.098,0.497,0.301C110.601,33.626,110.517,33.727,110.352,33.727z M111.16,17.761
	c-0.042,0.205-0.228,0.302-0.559,0.302c-0.126,0-0.188-0.063-0.188-0.196c0-0.204,0.053-0.369,0.158-0.504
	c0.101-0.131,0.195-0.232,0.281-0.304c0.08,0.071,0.193,0.089,0.337,0.057c0.147-0.034,0.218,0.015,0.218,0.147
	C111.283,17.399,111.201,17.563,111.16,17.761z M111.841,9.735v0.097c-0.04,0-0.062,0.034-0.062,0.1c-0.04,0-0.061-0.132-0.061-0.4
	C111.802,9.531,111.841,9.599,111.841,9.735z M112.123,13.45c-0.063,0.066-0.134,0.097-0.217,0.097c-0.085,0-0.145-0.03-0.188-0.097
	c0.042-0.205,0.167-0.302,0.374-0.302c0.041,0,0.082,0.017,0.125,0.05c0.039,0.032,0.081,0.047,0.122,0.047
	C112.255,13.312,112.185,13.384,112.123,13.45z M124.325,23.487h-0.185h-0.063c-0.041-0.064-0.062-0.129-0.062-0.201
	c0-0.132,0.041-0.195,0.125-0.195c0.163,0,0.249,0.098,0.249,0.299C124.389,23.458,124.365,23.487,124.325,23.487z M129.357,30.417
	c-0.124,0.265-0.33,0.405-0.621,0.405c-0.086,0-0.167,0-0.25,0c-0.081,0-0.123-0.071-0.123-0.205c0-0.065,0.03-0.134,0.091-0.2
	c0.065-0.065,0.116-0.168,0.157-0.297c0.083,0.129,0.222,0.162,0.403,0.097C129.2,30.149,129.316,30.217,129.357,30.417z
	 M128.24,27.205c0-0.132,0.03-0.27,0.09-0.401c0.063-0.135,0.195-0.204,0.406-0.204c0.247,0,0.412,0.102,0.497,0.304v0.098
	c0,0.137-0.043,0.204-0.126,0.204c-0.08,0-0.164,0.064-0.247,0.198h-0.06c-0.084,0-0.15,0.018-0.189,0.05
	c-0.041,0.036-0.103,0.053-0.186,0.053C128.301,27.506,128.24,27.403,128.24,27.205z M129.045,43.973
	c-0.042,0.065-0.084,0.099-0.125,0.099c-0.084,0-0.166-0.052-0.249-0.15c-0.083-0.103-0.164-0.187-0.247-0.253
	c0-0.199,0.05-0.315,0.156-0.349c0.102-0.033,0.194-0.056,0.279-0.056h0.124h0.062c0.083,0,0.115,0.038,0.095,0.106
	c-0.022,0.066-0.012,0.169,0.032,0.298c0.037,0,0.061,0.033,0.061,0.101C129.233,43.701,129.172,43.769,129.045,43.973z
	 M129.233,40.456h-0.374h-0.123c-0.042-0.199-0.115-0.281-0.217-0.249c-0.104,0.033-0.157-0.116-0.157-0.456
	c0-0.129,0.082-0.201,0.248-0.201c0.083,0,0.144,0.018,0.189,0.052c0.036,0.038,0.102,0.053,0.184,0.053
	c0.043,0,0.074-0.015,0.091-0.053c0.02-0.034,0.054-0.052,0.097-0.052c0.083,0.072,0.153,0.138,0.216,0.201
	c0.062,0.072,0.095,0.205,0.095,0.408C129.482,40.358,129.395,40.456,129.233,40.456z M131.343,44.872
	c-0.084,0-0.146-0.017-0.188-0.052c-0.039-0.03-0.084-0.047-0.121-0.047c0.163-0.265,0.348-0.402,0.559-0.402
	c0.163,0,0.289,0.065,0.374,0.204C131.756,44.773,131.552,44.872,131.343,44.872z M132.525,11.644c-0.125,0-0.259-0.019-0.407-0.051
	c-0.145-0.031-0.216-0.186-0.216-0.453c0.083,0,0.136-0.018,0.156-0.047c0.021-0.035,0.053-0.053,0.094-0.053
	c0.165,0,0.312,0.053,0.436,0.148c0.124,0.104,0.225,0.219,0.31,0.357C132.812,11.61,132.688,11.644,132.525,11.644z M132.587,8.025
	c-0.084,0-0.123-0.065-0.123-0.196c0-0.138,0.061-0.202,0.182-0.202c0.166,0,0.251,0.099,0.251,0.302
	C132.812,7.992,132.711,8.025,132.587,8.025z"/>
<path fill="#FFFFFF" d="M201.557,82.655c-0.306-0.143-0.711-0.299-1.217-0.465c-0.448-0.146-0.796-0.277-1.045-0.389
	c-0.251-0.115-0.46-0.266-0.631-0.453c-0.169-0.186-0.254-0.422-0.254-0.707c0-0.408,0.163-0.707,0.488-0.906
	c0.327-0.197,0.747-0.293,1.261-0.293c0.358,0,0.72,0.047,1.079,0.139c0.36,0.094,0.673,0.223,0.939,0.391v-0.6
	c-0.267-0.154-0.584-0.273-0.95-0.361c-0.366-0.086-0.735-0.129-1.107-0.129c-0.415,0-0.794,0.066-1.146,0.195
	c-0.35,0.129-0.632,0.33-0.844,0.6c-0.214,0.27-0.319,0.598-0.319,0.984c0,0.4,0.103,0.729,0.309,0.98
	c0.207,0.254,0.462,0.447,0.761,0.588c0.301,0.141,0.696,0.291,1.188,0.453c0.454,0.15,0.811,0.285,1.069,0.402
	c0.262,0.117,0.479,0.275,0.66,0.48c0.181,0.203,0.271,0.459,0.271,0.764c0,0.42-0.179,0.727-0.535,0.92s-0.818,0.291-1.384,0.291
	c-0.86,0-1.645-0.207-2.351-0.621v0.59c0.722,0.393,1.531,0.59,2.43,0.59c0.701,0,1.281-0.15,1.744-0.445
	c0.462-0.297,0.695-0.752,0.695-1.365c0-0.412-0.107-0.752-0.324-1.018C202.127,83.003,201.863,82.798,201.557,82.655z"/>
<path fill="#FFFFFF" d="M234.611,48.351h-17.12V0.991h-10.572V57.26h27.692V48.351z M215.186,17.464v-0.102h0.188
	c0.041,0,0.062,0.037,0.062,0.102v0.1h-0.062h-0.188V17.464z M210.406,28.91c0.041,0,0.06-0.035,0.06-0.101v-0.1h0.064h0.247
	c0.081,0,0.142,0.03,0.188,0.1c-0.085,0.135-0.155,0.234-0.221,0.302c-0.061,0.065-0.152,0.097-0.278,0.097
	c-0.084-0.064-0.125-0.129-0.125-0.197C210.341,28.944,210.36,28.91,210.406,28.91z M210.965,32.323
	c0,0.137-0.065,0.201-0.188,0.201c-0.083,0-0.125-0.033-0.125-0.102v-0.202h0.062c0.039,0,0.072,0.021,0.095,0.054
	c0.019,0.033,0.049,0.049,0.09,0.049H210.965z M210.715,45.98c-0.086,0-0.164-0.035-0.249-0.105
	c-0.084-0.063-0.125-0.237-0.125-0.497c0-0.138,0.083-0.206,0.251-0.206c0.162,0,0.327,0.139,0.495,0.403
	C211.087,45.844,210.965,45.98,210.715,45.98z M211.024,42.464c-0.084,0-0.207-0.051-0.372-0.15
	c-0.169-0.103-0.246-0.252-0.246-0.455c0-0.13,0.048-0.215,0.151-0.247c0.104-0.03,0.178-0.05,0.22-0.05
	c0.205,0,0.37,0.167,0.494,0.5C211.271,42.331,211.192,42.464,211.024,42.464z M212.949,46.324c0.206-0.161,0.436-0.246,0.683-0.246
	h0.374h0.062c0.084,0,0.114,0.05,0.095,0.15c-0.022,0.096,0.011,0.152,0.091,0.152c-0.039,0.196-0.215,0.349-0.527,0.447
	c-0.308,0.103-0.611,0.149-0.897,0.149c-0.21,0-0.354-0.065-0.437-0.196C212.554,46.649,212.745,46.495,212.949,46.324z
	 M213.911,53.158c-0.186,0.097-0.423,0.146-0.714,0.146c-0.289,0-0.434-0.096-0.434-0.295c0-0.34,0.071-0.539,0.218-0.606
	c0.147-0.068,0.321-0.101,0.527-0.101c0.456,0,0.808,0.168,1.058,0.503C214.316,52.938,214.099,53.054,213.911,53.158z
	 M216.862,56.672c-0.454-0.033-0.828,0.082-1.116,0.347c-0.167,0-0.282,0.037-0.344,0.105c-0.063,0.063-0.134,0.099-0.217,0.099
	c-0.041,0-0.144-0.066-0.311-0.204c0-0.466,0.083-0.752,0.251-0.848c0.161-0.104,0.369-0.155,0.62-0.155h0.558
	c0.373,0,0.644-0.103,0.809-0.3h0.123h0.373c0.127,0,0.205,0.07,0.25,0.197C217.649,56.454,217.319,56.705,216.862,56.672z
	 M221.212,54.513h-0.065h-0.122c-0.043,0-0.064-0.068-0.064-0.204V54.21c0.042,0,0.105,0,0.187,0c0.087,0,0.125,0.033,0.125,0.099
	C221.271,54.379,221.251,54.444,221.212,54.513z"/>
<polygon fill="#FFFFFF" points="132.917,79.562 135.476,79.562 135.476,85.989 136.066,85.989 136.066,79.562 138.626,79.562 
	138.626,78.993 132.917,78.993 "/>
</svg>
