<svg xmlns="http://www.w3.org/2000/svg" viewBox="0 0 346 58" width="348" height="58">
	<style>
		tspan { white-space:pre }
		.shp0 { fill: #ffffff } 
	</style>
	<path id="Layer" class="shp0" d="M269.18 82.66C268.87 82.51 268.47 82.36 267.96 82.19C267.51 82.04 267.17 81.91 266.91 81.8C266.66 81.69 266.46 81.53 266.28 81.35C266.12 81.16 266.03 80.93 266.03 80.64C266.03 80.23 266.19 79.93 266.52 79.73C266.84 79.54 267.27 79.44 267.78 79.44C268.14 79.44 268.5 79.49 268.86 79.58C269.22 79.67 269.53 79.8 269.8 79.97L269.8 79.37C269.53 79.22 269.21 79.1 268.85 79.01C268.48 78.92 268.11 78.88 267.74 78.88C267.33 78.88 266.94 78.95 266.59 79.08C266.24 79.21 265.96 79.41 265.75 79.68C265.54 79.95 265.43 80.27 265.43 80.66C265.43 81.06 265.53 81.39 265.74 81.64C265.95 81.89 266.2 82.09 266.5 82.23C266.8 82.37 267.2 82.52 267.69 82.68C268.14 82.83 268.5 82.97 268.76 83.08C269.02 83.2 269.24 83.36 269.42 83.56C269.6 83.77 269.69 84.02 269.69 84.33C269.69 84.75 269.51 85.05 269.16 85.25C268.8 85.44 268.34 85.54 267.77 85.54C266.91 85.54 266.12 85.33 265.42 84.92L265.42 85.51C266.14 85.9 266.95 86.1 267.85 86.1C268.55 86.1 269.13 85.95 269.59 85.65C270.06 85.36 270.29 84.9 270.29 84.29C270.29 83.88 270.18 83.54 269.96 83.27C269.75 83 269.48 82.8 269.18 82.66Z" />
	<path id="Layer" fill-rule="evenodd" class="shp0" d="M10.54 6.3L10.54 57.26L0 57.26L0 0.99L10.54 0.99L10.54 5.98C10.45 6.03 10.39 6.13 10.39 6.32L10.46 6.32C10.49 6.32 10.52 6.31 10.54 6.3ZM5.11 15.46L5.24 15.66L5.36 15.86L5.62 15.86C5.74 15.86 5.8 15.82 5.8 15.76L5.8 15.55C5.8 15.43 5.72 15.36 5.55 15.36C5.47 15.36 5.37 15.36 5.27 15.36C5.17 15.36 5.11 15.39 5.11 15.46ZM5.3 43.78C5.26 43.7 5.18 43.67 5.05 43.67C4.89 43.67 4.8 43.74 4.8 43.87C4.8 44.07 4.85 44.18 4.93 44.18L5.3 44.18C5.39 44.18 5.43 44.1 5.43 43.97C5.39 43.91 5.34 43.84 5.3 43.78ZM4.44 40.76L4.56 40.96C4.72 40.96 4.93 40.76 5.18 40.36L5.18 40.26C5.18 40.13 5.12 40.06 5 40.06C4.62 40.06 4.44 40.29 4.44 40.76ZM3.01 17.97C3.01 18.17 3.02 18.27 3.07 18.27L3.13 18.17C3.13 18.04 3.09 17.97 3.01 17.97ZM2.69 32.02C2.69 32.09 2.79 32.12 3.01 32.12C3.21 32.12 3.31 32.02 3.31 31.82C3.31 31.62 3.17 31.52 2.88 31.52C2.88 31.66 2.85 31.76 2.79 31.82C2.73 31.89 2.69 31.96 2.69 32.02ZM0.89 34.53C0.98 34.53 1.06 34.53 1.14 34.53C1.14 34.47 1.15 34.42 1.17 34.38C1.19 34.35 1.2 34.3 1.2 34.23C1.16 34.17 1.1 34.13 1.02 34.13C0.97 34.13 0.94 34.15 0.92 34.18C0.9 34.22 0.87 34.23 0.83 34.23L0.77 34.23L0.77 34.33C0.77 34.47 0.81 34.53 0.89 34.53ZM1.57 40.56L1.57 40.36C1.57 40.29 1.55 40.26 1.51 40.26C1.43 40.26 1.39 40.22 1.39 40.16C1.31 40.09 1.24 40.06 1.2 40.06C1.04 40.06 0.95 40.13 0.95 40.26L1.08 40.66C1.12 40.66 1.16 40.62 1.2 40.56C1.29 40.7 1.32 40.76 1.3 40.76C1.27 40.76 1.33 40.76 1.45 40.76C1.53 40.76 1.58 40.7 1.58 40.56L1.57 40.56ZM3.31 45.98C3.31 45.85 3.21 45.78 3.01 45.78L3.01 45.88C3.01 46.14 3.09 46.28 3.25 46.28C3.29 46.22 3.31 46.11 3.31 45.98ZM3.62 38.55L3.62 38.45C3.62 38.12 3.5 37.95 3.25 37.95C3.17 37.95 3.07 37.97 2.97 38C2.87 38.03 2.77 38.05 2.69 38.05L2.57 38.05C2.57 38.12 2.56 38.15 2.54 38.15C2.52 38.15 2.5 38.19 2.5 38.25C2.5 38.39 2.52 38.53 2.54 38.71C2.56 38.87 2.59 38.95 2.63 38.95C2.67 38.95 2.71 38.92 2.75 38.85C2.79 38.99 2.9 39.05 3.06 39.05C3.15 39.05 3.26 39 3.41 38.9C3.55 38.8 3.63 38.69 3.63 38.55L3.62 38.55ZM4.62 47.59L4.93 47.59C5.01 47.59 5.05 47.56 5.05 47.49C4.93 47.35 4.82 47.19 4.75 46.99C4.66 46.79 4.52 46.68 4.31 46.68L4.19 46.68C4.19 47.02 4.23 47.24 4.34 47.34C4.44 47.44 4.54 47.52 4.62 47.59L4.62 47.59ZM6.05 54.01C5.88 53.74 5.65 53.61 5.36 53.61C5.16 53.61 5.01 53.68 4.93 53.81C5.01 54.08 5.11 54.21 5.24 54.21C5.36 54.21 5.43 54.28 5.43 54.41C5.72 54.41 5.92 54.28 6.05 54.01ZM6.86 42.17C6.86 42.23 6.88 42.27 6.92 42.27C6.92 42.33 6.96 42.37 7.04 42.37L7.04 42.27L6.92 42.06C6.88 42.06 6.86 42.1 6.86 42.17ZM7.66 47.79L7.85 47.79C7.93 47.65 7.97 47.56 7.97 47.49L7.97 47.38C7.93 47.38 7.91 47.34 7.91 47.24C7.91 47.13 7.87 47.08 7.79 47.08L7.72 47.08C7.64 47.08 7.58 47.07 7.54 47.03C7.5 47 7.44 46.98 7.35 46.98C7.06 46.98 6.92 47.22 6.92 47.69C6.92 47.89 6.98 47.99 7.1 47.99C7.31 47.99 7.45 47.95 7.53 47.89C7.58 47.89 7.62 47.85 7.66 47.79ZM9.34 53.51C9.26 53.51 9.23 53.44 9.25 53.31C9.27 53.17 9.26 53.11 9.22 53.11C9.17 53.11 9.15 53.12 9.15 53.16C9.15 53.19 9.13 53.21 9.09 53.21C9.01 52.94 8.89 52.8 8.75 52.8C8.61 52.8 8.43 52.74 8.22 52.61C8.05 52.67 7.97 52.8 7.97 53.01C7.97 53.34 8.07 53.61 8.25 53.81C8.44 54.01 8.63 54.11 8.84 54.11C8.93 54.11 9.03 54.05 9.15 53.91C9.28 53.78 9.34 53.64 9.34 53.51Z" />
	<path id="Layer" fill-rule="evenodd" class="shp0" d="M42.2 39.93L52.35 39.93L52.35 44.62C52.35 48.87 50.65 52.31 47.31 54.83C44.3 57.1 40.53 58.25 36.13 58.25C31.73 58.25 27.98 57.1 24.98 54.83C21.62 52.31 19.92 48.87 19.92 44.62L19.92 13.63C19.92 9.39 21.57 5.95 24.83 3.43C27.81 1.15 31.54 0 35.92 0C40.3 0 44.03 1.15 47 3.43C48.02 4.21 48.86 5.1 49.56 6.06C49.5 6.05 49.43 6.02 49.36 6.02C49.15 6.02 49.05 6.12 49.05 6.32C49.05 6.66 49.3 6.82 49.8 6.82C49.9 6.82 49.98 6.79 50.05 6.74C51.29 8.72 51.92 11.02 51.92 13.63L51.92 18.32L41.78 18.32L41.78 13.92C41.78 13.03 41.54 12.28 41.11 11.63C41.15 11.63 41.19 11.64 41.23 11.64C41.39 11.64 41.52 11.61 41.6 11.54C41.52 11.41 41.41 11.29 41.29 11.19C41.17 11.09 41.02 11.04 40.86 11.04C40.81 11.04 40.78 11.06 40.76 11.09C40.76 11.1 40.72 11.1 40.71 11.11C40.54 10.92 40.36 10.74 40.15 10.57C39.07 9.74 37.76 9.33 36.13 9.33C34.51 9.33 33.19 9.74 32.11 10.57C31.02 11.42 30.49 12.51 30.49 13.92L30.49 44.33C30.49 45.73 31.05 46.82 32.2 47.66C33.36 48.51 34.71 48.92 36.34 48.92C37.98 48.92 39.34 48.51 40.49 47.66C41.64 46.82 42.2 45.73 42.2 44.33L42.2 39.93ZM45.64 6.63C45.64 6.82 45.75 6.96 45.98 7.02C46.21 7.09 46.38 7.16 46.51 7.23C46.67 7.09 46.75 6.89 46.75 6.62L46.75 6.42C46.63 6.22 46.47 6.12 46.25 6.12C46.13 6.12 46 6.16 45.85 6.22C45.71 6.29 45.64 6.43 45.64 6.63ZM41.85 15.45C41.85 15.66 41.88 15.77 41.94 15.81C42.01 15.84 42.07 15.93 42.16 16.06L42.47 16.06C42.55 16.06 42.59 16.02 42.59 15.96C42.59 15.89 42.59 15.84 42.57 15.81C42.54 15.77 42.53 15.72 42.53 15.66C42.53 15.52 42.43 15.36 42.22 15.15C41.97 15.15 41.85 15.26 41.85 15.45ZM41.17 7.83C41.17 7.96 41.21 8.03 41.29 8.03C41.41 8.03 41.52 7.99 41.6 7.93C41.6 7.73 41.52 7.63 41.35 7.63C41.23 7.63 41.17 7.69 41.17 7.83Z" />
	<path id="Layer" fill-rule="evenodd" class="shp0" d="M307.75 30.3C310.18 33.04 311.4 36.53 311.4 40.71L311.4 44.6C311.4 48.85 309.71 52.29 306.37 54.81C303.35 57.08 299.59 58.23 295.19 58.23C290.81 58.23 287.06 57.08 284.04 54.81C280.68 52.29 278.97 48.85 278.97 44.6L278.97 39.91L289.12 39.91L289.12 44.28C289.12 45.69 289.72 46.8 290.96 47.67C292.15 48.49 293.54 48.9 295.19 48.9C296.81 48.9 298.13 48.49 299.21 47.66C300.33 46.81 300.87 45.71 300.87 44.28L300.87 41.03C300.87 39.15 299.89 37.6 297.89 36.28C297.52 36.04 295.93 35.23 290.52 32.71C286.99 31.08 284.35 29.29 282.66 27.41C280.21 24.71 278.97 21.21 278.97 17.01L278.97 13.65C278.97 9.42 280.68 5.99 284.04 3.44C287.06 1.17 290.81 0.02 295.19 0.02C299.57 0.02 303.28 1.19 306.21 3.48C309.4 5.98 311.02 9.41 311.02 13.65L311.02 18.3L300.44 18.3L300.44 13.97C300.44 12.54 299.97 11.44 298.99 10.59C298.01 9.76 296.77 9.35 295.19 9.35C293.58 9.35 292.26 9.76 291.16 10.6C290.08 11.45 289.55 12.56 289.55 13.97L289.55 16.73C289.55 18.58 290.52 20.12 292.52 21.44C292.54 21.45 292.56 21.46 292.57 21.47C292.57 21.48 292.57 21.48 292.57 21.48C292.57 21.82 292.74 21.99 293.07 21.99C293.14 21.99 293.27 21.97 293.43 21.95C293.93 22.2 294.67 22.57 295.77 23.1C295.7 23.11 295.62 23.17 295.55 23.29C295.55 23.49 295.57 23.66 295.61 23.79L295.99 23.79C296.03 23.79 296.05 23.76 296.05 23.69L296.05 23.59L296.17 23.59C296.1 23.4 296.03 23.27 295.96 23.19C296.97 23.67 298.24 24.28 299.89 25.05C303.42 26.68 306.06 28.45 307.75 30.3ZM291.82 9.53C291.82 9.67 291.88 9.75 291.98 9.78C292.08 9.82 292.17 9.83 292.26 9.83C292.42 9.83 292.51 9.7 292.51 9.43C292.51 9.23 292.42 9.13 292.26 9.13L291.95 9.13C291.87 9.27 291.82 9.4 291.82 9.53ZM294.37 28.71C294.29 28.65 294.18 28.61 294.06 28.61L293.56 28.61C293.56 28.68 293.52 28.73 293.44 28.76C293.35 28.79 293.32 28.85 293.32 28.91L293.38 29.01L293.38 29.31C293.58 29.31 293.77 29.3 293.93 29.26C294.1 29.23 294.25 29.04 294.37 28.71ZM294.06 52.91C294.06 52.71 293.93 52.6 293.69 52.6C293.52 52.6 293.44 52.67 293.44 52.8C293.44 52.94 293.5 53.04 293.62 53.11L293.93 53.11C294.02 53.11 294.06 53.04 294.06 52.91ZM303.31 34.53C303.31 34.67 303.37 34.75 303.5 34.79C303.63 34.82 303.75 34.84 303.87 34.84C304.08 34.84 304.2 34.7 304.25 34.43C304.25 34.36 304.22 34.35 304.18 34.38C304.14 34.42 304.12 34.4 304.12 34.33L304.12 34.23C303.99 34.23 303.92 34.21 303.9 34.18C303.88 34.15 303.83 34.13 303.75 34.13C303.66 34.2 303.58 34.23 303.5 34.23C303.38 34.36 303.31 34.47 303.31 34.53ZM303.99 53.41C303.96 53.41 303.92 53.39 303.9 53.36C303.88 53.33 303.83 53.3 303.75 53.3C303.58 53.3 303.5 53.38 303.5 53.51L303.63 53.71C303.71 53.71 303.77 53.66 303.81 53.56C303.85 53.46 303.91 53.41 303.99 53.41ZM303.99 53.41C303.99 53.41 303.99 53.41 303.99 53.41C303.99 53.41 303.99 53.41 303.99 53.41ZM304.31 47.29C304.1 47.08 303.91 46.98 303.75 46.98C303.66 46.98 303.57 47 303.47 47.03C303.36 47.07 303.31 47.15 303.31 47.29C303.31 47.35 303.38 47.45 303.53 47.59C303.67 47.72 303.79 47.79 303.87 47.79C304.03 47.79 304.13 47.73 304.15 47.64C304.17 47.54 304.23 47.42 304.31 47.29ZM304.31 43.87L304.31 43.67C304.26 43.54 304.16 43.47 303.99 43.47L303.56 43.47C303.56 43.6 303.51 43.65 303.41 43.62C303.3 43.59 303.25 43.61 303.25 43.67C303.25 44.07 303.4 44.28 303.69 44.28C303.77 44.28 303.89 44.26 304.06 44.23C304.23 44.19 304.31 44.07 304.31 43.87L304.31 43.87ZM304.43 37.65C304.23 37.58 303.91 37.55 303.5 37.55C303.42 37.68 303.34 37.74 303.28 37.74C303.22 37.74 303.19 37.85 303.19 38.05C303.19 38.11 303.21 38.18 303.25 38.25L303.31 38.15C303.35 38.22 303.42 38.25 303.5 38.25C303.58 38.32 303.71 38.35 303.87 38.35C304.25 38.35 304.43 38.25 304.43 38.05L304.43 37.65ZM308.16 46.88C308.16 47.02 308.19 47.08 308.28 47.08L308.41 46.98C308.41 46.78 308.32 46.68 308.16 46.68L308.16 46.88Z" />
	<path id="Layer" class="shp0" d="M231.1 79.56L233.66 79.56L233.66 85.99L234.25 85.99L234.25 79.56L236.81 79.56L236.81 78.99L231.1 78.99L231.1 79.56Z" />
	<path id="Layer" fill-rule="evenodd" class="shp0" d="M92.07 18.15L92.07 44.62C92.07 48.87 90.38 52.31 87.04 54.83C84.02 57.1 80.26 58.25 75.85 58.25C71.45 58.25 67.7 57.1 64.7 54.83C61.34 52.31 59.64 48.87 59.64 44.62L59.64 13.63C59.64 9.38 61.34 5.94 64.71 3.42C67.7 1.15 71.45 0 75.85 0C80.25 0 84.02 1.15 87.04 3.42C90.38 5.95 92.07 9.38 92.07 13.64L92.07 17.42C91.88 17.05 91.64 16.86 91.35 16.86C91.14 16.86 91.04 16.9 91.04 16.96C91.04 17.03 91 17.3 90.91 17.76C91.04 18.03 91.3 18.17 91.72 18.17C91.8 18.17 91.91 18.17 92.03 18.17C92.05 18.17 92.06 18.16 92.07 18.15ZM61.85 15.66L61.85 15.56C61.85 15.43 61.81 15.34 61.72 15.31C61.64 15.28 61.58 15.26 61.54 15.26C61.49 15.39 61.45 15.47 61.41 15.51C61.37 15.54 61.35 15.63 61.35 15.76C61.35 15.82 61.37 15.86 61.41 15.86C61.49 15.86 61.56 15.82 61.6 15.76C61.64 15.7 61.72 15.66 61.85 15.66L61.85 15.66ZM62.16 7.93C62.2 7.99 62.24 8.03 62.28 8.03C62.53 8.03 62.65 7.96 62.65 7.83L62.65 7.63C62.61 7.63 62.59 7.64 62.59 7.68C62.59 7.71 62.57 7.73 62.53 7.73C62.49 7.73 62.47 7.71 62.47 7.68C62.47 7.64 62.45 7.63 62.41 7.63C62.41 7.49 62.33 7.42 62.16 7.42C62.12 7.49 62.1 7.56 62.1 7.63C62.1 7.76 62.12 7.86 62.16 7.93ZM62.9 11.55C63.03 11.48 63.15 11.41 63.28 11.34L63.28 11.14L63.21 10.94C63.05 10.94 62.84 11.01 62.59 11.14C62.34 11.27 62.22 11.41 62.22 11.55C62.22 11.61 62.26 11.64 62.34 11.64C62.43 11.64 62.49 11.64 62.53 11.64C62.65 11.64 62.78 11.61 62.9 11.55ZM64.08 44.77C64.04 44.58 63.98 44.51 63.9 44.58C63.81 44.64 63.77 44.58 63.77 44.37L63.4 44.37C63.27 44.37 63.21 44.44 63.21 44.58C63.34 44.77 63.52 44.87 63.77 44.87C63.86 44.87 63.91 44.85 63.93 44.82C63.95 44.79 64 44.77 64.08 44.77ZM89.42 12.85C89.59 13.18 89.83 13.38 90.17 13.45C90.5 13.52 90.62 13.55 90.54 13.55L90.66 13.55L90.66 13.35C90.46 13.02 90.17 12.85 89.8 12.85L89.42 12.85ZM85.64 10.44C85.64 10.51 85.7 10.53 85.82 10.53C85.86 10.74 85.92 10.84 86.01 10.84L86.01 10.74C86.05 10.6 86.15 10.53 86.32 10.53L86.32 10.33C86.32 10.2 86.26 10.14 86.13 10.14C85.8 10.14 85.64 10.23 85.64 10.44ZM82.65 14.45C82.73 14.66 82.88 14.87 83.09 15.11C83.29 15.34 83.46 15.46 83.58 15.46C83.71 15.46 83.86 15.44 84.02 15.41C84.18 15.38 84.35 15.36 84.51 15.36C84.68 15.36 84.86 15.41 85.04 15.51C85.23 15.6 85.43 15.66 85.64 15.66C85.76 15.66 85.84 15.62 85.88 15.56C85.92 15.02 86.13 14.72 86.5 14.66C86.88 14.59 87.23 14.49 87.56 14.35C87.64 14.02 87.72 13.7 87.81 13.4C87.89 13.1 88.04 12.81 88.24 12.54C88.2 12.48 88.14 12.44 88.06 12.44C87.85 12.44 87.68 12.59 87.56 12.89C87.44 13.2 87.15 13.35 86.69 13.35C86.4 13.35 86.17 13.28 86.01 13.15C85.76 13.28 85.56 13.45 85.42 13.65C85.27 13.85 85.05 13.98 84.77 14.05C84.47 13.98 84.25 13.95 84.08 13.95C83.91 13.95 83.73 13.89 83.52 13.75C83.32 13.89 83.14 13.96 83 14C82.85 14.03 82.73 14.18 82.65 14.45ZM82.31 17.36C82.17 17.5 82.09 17.6 82.09 17.66L82.09 18.17C82.3 18.3 82.54 18.4 82.81 18.46C83.07 18.54 83.34 18.57 83.58 18.57C83.84 18.57 84.21 18.49 84.7 18.32C85.2 18.15 85.45 17.87 85.45 17.46C85.45 17.4 85.43 17.36 85.39 17.36L85.32 17.36L85.32 17.06C85.28 17.06 85.24 17.05 85.2 17.01C85.16 16.98 85.1 16.96 85.01 16.96C84.72 16.96 84.45 17.05 84.21 17.21C83.96 17.38 83.69 17.46 83.4 17.46C83.27 17.46 83.14 17.42 83 17.31C82.85 17.21 82.73 17.16 82.65 17.16C82.57 17.16 82.45 17.23 82.31 17.36ZM83.21 25.3C83.13 25.16 83.05 25.01 82.97 24.85C82.88 24.68 82.76 24.6 82.59 24.6L82.53 24.6C82.44 24.6 82.37 24.58 82.31 24.54C82.25 24.51 82.18 24.49 82.09 24.49C81.87 24.49 81.68 24.57 81.53 24.7L81.53 15.2C81.59 15.15 81.63 15.07 81.66 14.95C81.7 14.75 81.78 14.66 81.91 14.66L81.97 14.66C82.01 14.66 82.03 14.62 82.03 14.55L82.03 14.25C81.95 14.12 81.87 14.05 81.78 14.05C81.71 14.05 81.62 14.1 81.53 14.18L81.53 13.92C81.53 12.51 80.99 11.42 79.88 10.58C78.79 9.74 77.48 9.33 75.85 9.33C74.23 9.33 72.91 9.74 71.83 10.57C70.74 11.42 70.21 12.51 70.21 13.92L70.21 44.3C70.21 45.73 70.74 46.84 71.83 47.68C72.91 48.51 74.23 48.92 75.85 48.92C77.48 48.92 78.79 48.51 79.87 47.68C80.99 46.83 81.53 45.73 81.53 44.3L81.53 25.52C81.59 25.56 81.65 25.61 81.72 25.64C81.93 25.75 82.13 25.83 82.31 25.9C82.5 25.97 82.64 26.02 82.75 26.05C82.85 26.08 82.86 26.1 82.78 26.1L82.84 26.1L82.84 26L82.9 25.89C82.94 25.89 82.97 25.91 82.99 25.95C83.02 25.98 83.04 26 83.09 26C83.17 25.8 83.21 25.56 83.21 25.3ZM66.69 43.47L66.69 43.37C66.69 43.23 66.65 43.17 66.56 43.17C66.48 43.17 66.34 43.2 66.13 43.26C65.92 43.34 65.82 43.44 65.82 43.57C65.82 43.91 65.9 44.07 66.07 44.07L66.44 44.07C66.53 43.94 66.59 43.84 66.63 43.77C66.67 43.7 66.69 43.61 66.69 43.47L66.69 43.47ZM66.75 39.96C66.72 39.69 66.57 39.55 66.32 39.55C66.15 39.55 65.99 39.59 65.82 39.65C65.66 39.72 65.57 39.89 65.57 40.16C65.57 40.36 65.7 40.46 65.94 40.46C66.28 40.46 66.54 40.29 66.75 39.96ZM66.13 30.71C66.3 30.65 66.44 30.65 66.56 30.71C66.56 30.45 66.54 30.31 66.51 30.31L66.44 30.31C66.36 30.25 66.23 30.22 66.07 30.22C65.9 30.22 65.8 30.25 65.76 30.31C65.84 30.65 65.97 30.78 66.13 30.71ZM66.75 27L66.75 26.9C66.71 26.77 66.61 26.67 66.44 26.6C66.28 26.53 66.13 26.5 66.01 26.5C65.92 26.5 65.88 26.63 65.88 26.9C66.05 27.3 66.22 27.51 66.38 27.51C66.46 27.51 66.54 27.49 66.63 27.45C66.71 27.42 66.75 27.27 66.75 27ZM82.72 48.79C82.63 48.79 82.58 48.77 82.56 48.74C82.54 48.71 82.49 48.69 82.41 48.69C82.24 48.69 82.04 48.74 81.82 48.84C81.59 48.94 81.47 49.09 81.47 49.29C81.47 49.42 81.52 49.52 81.6 49.59C81.68 49.66 81.76 49.69 81.85 49.69C81.93 49.69 82.04 49.64 82.19 49.54C82.33 49.44 82.47 49.39 82.59 49.39L82.65 49.49C82.69 49.49 82.72 49.43 82.72 49.29L82.72 48.79ZM81.41 9.63C81.41 9.9 81.47 10.03 81.59 10.03C81.72 10.03 81.76 10.03 81.72 10.03C81.84 10.03 81.93 10.02 81.97 9.99C82.01 9.95 82.07 9.87 82.15 9.73C82.11 9.6 82.02 9.52 81.88 9.48C81.8 9.46 81.76 9.46 81.75 9.45C81.69 9.45 81.64 9.46 81.63 9.48C81.6 9.52 81.56 9.53 81.47 9.53L81.41 9.53L81.41 9.63ZM84.27 27.6C84.19 27.34 84.06 27.21 83.89 27.21C83.81 27.21 83.73 27.27 83.65 27.4C83.56 27.54 83.52 27.67 83.52 27.81C83.52 27.94 83.57 28.05 83.68 28.16C83.78 28.26 83.88 28.31 83.96 28.31C84.17 28.31 84.27 28.07 84.27 27.6ZM85.94 26.3L85.94 26.19C85.86 26.07 85.72 26 85.51 26C85.3 26 85.2 26.2 85.2 26.6C85.2 26.73 85.24 26.8 85.32 26.8C85.41 26.8 85.49 26.87 85.57 27C85.82 26.87 85.94 26.63 85.94 26.3L85.94 26.3ZM87.68 32.22C87.6 31.89 87.5 31.72 87.37 31.72C87.25 31.72 87.12 31.72 87 31.72C86.83 31.86 86.69 31.96 86.57 32.02C86.44 32.09 86.34 32.22 86.25 32.42C86.25 32.56 86.31 32.64 86.41 32.67C86.51 32.71 86.61 32.79 86.69 32.92C86.9 32.92 87.06 32.84 87.19 32.67C87.31 32.51 87.48 32.36 87.68 32.22ZM88.06 23.59C88.06 23.26 88.02 23.02 87.93 22.88C87.93 22.76 87.95 22.67 87.97 22.63C87.98 22.6 88 22.55 88 22.48C88 22.22 87.95 22.04 87.84 21.93C87.74 21.83 87.6 21.75 87.44 21.68C87.27 21.62 87.12 21.55 86.97 21.48C86.82 21.42 86.73 21.25 86.69 20.98C86.69 20.58 86.75 20.29 86.85 20.13C86.95 19.96 87.06 19.84 87.19 19.78C87.31 19.71 87.42 19.62 87.53 19.52C87.64 19.43 87.68 19.28 87.68 19.07L87.68 18.97C87.56 18.64 87.37 18.46 87.13 18.46C87.17 18.46 87.08 18.55 86.85 18.72C86.62 18.88 86.35 19.07 86.04 19.27C85.73 19.47 85.44 19.69 85.17 19.92C84.9 20.16 84.77 20.34 84.77 20.48C84.77 20.74 84.84 20.91 84.99 20.98C85.13 21.04 85.3 21.1 85.48 21.13C85.67 21.16 85.84 21.23 86.01 21.33C86.17 21.43 86.26 21.61 86.26 21.88C86.26 22.22 86.17 22.42 85.98 22.48C85.79 22.55 85.65 22.59 85.57 22.59C85.41 22.52 85.22 22.48 85.01 22.48C84.81 22.48 84.66 22.35 84.58 22.08L84.14 22.08C83.93 22.08 83.83 22.22 83.83 22.48C83.88 22.55 83.92 22.63 83.99 22.74C84.05 22.84 84.12 22.88 84.2 22.88C84.33 23.02 84.47 23.3 84.64 23.74C84.81 24.18 84.89 24.33 84.89 24.19L85.32 24.19C85.41 24.19 85.46 24.16 85.51 24.09C85.84 24.09 86.12 24.16 86.35 24.29C86.57 24.43 86.79 24.49 87 24.49C87.21 24.49 87.38 24.38 87.53 24.15C87.67 23.91 87.85 23.72 88.06 23.59ZM88.09 17.61C88.27 17.64 88.44 17.64 88.59 17.61C88.73 17.58 88.84 17.43 88.93 17.16C88.93 16.89 88.9 16.7 88.86 16.56C88.66 16.56 88.47 16.58 88.3 16.61C88.14 16.65 87.95 16.66 87.75 16.66C87.37 16.66 87.13 16.59 87.03 16.46C86.93 16.32 86.77 16.26 86.57 16.26C86.36 16.26 86.25 16.36 86.25 16.56C86.34 16.9 86.48 17.15 86.69 17.31C86.89 17.48 87.08 17.73 87.25 18.06C87.29 17.8 87.39 17.65 87.56 17.61C87.72 17.58 87.9 17.58 88.09 17.61ZM90.79 24.39L90.54 24.39C90.25 24.39 89.98 24.36 89.73 24.29C89.48 24.23 89.23 24.16 88.99 24.09C88.99 24.16 88.97 24.21 88.95 24.24C88.94 24.28 88.92 24.33 88.92 24.39C88.92 24.53 89.03 24.64 89.23 24.74C89.44 24.85 89.61 24.9 89.73 24.9C89.9 24.9 90.11 24.9 90.38 24.9C90.65 24.9 90.79 24.73 90.79 24.39ZM90.91 21.78L90.91 21.28C90.58 21.28 90.27 21.18 89.98 20.98C89.69 20.78 89.4 20.68 89.11 20.68C88.9 20.68 88.69 20.72 88.46 20.83C88.23 20.93 88.12 21.18 88.12 21.58C88.12 21.91 88.39 22.08 88.92 22.08C89.47 22.08 89.88 22.11 90.17 22.18C90.37 22.18 90.53 22.15 90.63 22.08C90.74 22.02 90.83 21.91 90.91 21.78L90.91 21.78Z" />
	<path id="Layer" fill-rule="evenodd" class="shp0" d="M102.27 83.11L104.76 85.99L104.02 85.99L101.58 83.16L99.63 83.16L99.63 85.99L99.04 85.99L99.04 78.99L101.73 78.99C102.17 78.99 102.58 79.06 102.97 79.2C103.36 79.33 103.67 79.56 103.92 79.87C104.17 80.17 104.29 80.58 104.29 81.07C104.29 81.69 104.1 82.17 103.71 82.5C103.32 82.83 102.84 83.04 102.27 83.11ZM101.77 82.59C102.3 82.59 102.75 82.47 103.13 82.23C103.5 81.99 103.69 81.6 103.69 81.07C103.69 80.54 103.5 80.15 103.13 79.92C102.77 79.68 102.31 79.56 101.77 79.56L99.64 79.56L99.64 82.59L101.77 82.59Z" />
	<path id="Layer" fill-rule="evenodd" class="shp0" d="M66.86 78.99L69.96 85.99L69.33 85.99L68.5 84.11L64.55 84.11L63.71 85.99L63.07 85.99L66.19 78.99L66.86 78.99ZM68.25 83.55L66.61 79.82L66.52 79.6L66.43 79.82L64.78 83.55L68.25 83.55Z" />
	<path id="Layer" fill-rule="evenodd" class="shp0" d="M262.88 0.99L273.62 57.26L262.86 57.26L260.78 44.88L251.95 44.88L249.88 57.26L239.11 57.26L249.86 0.99L262.88 0.99ZM242.95 48.89L242.95 48.79C242.95 48.72 242.92 48.69 242.88 48.69C242.8 48.69 242.75 48.71 242.73 48.74C242.71 48.77 242.68 48.79 242.64 48.79L242.57 48.79C242.57 48.86 242.62 48.89 242.7 48.89L242.95 48.89ZM244.5 54.91C244.37 54.78 244.25 54.63 244.13 54.46C244 54.3 243.84 54.21 243.63 54.21C243.5 54.21 243.44 54.28 243.44 54.41C243.44 54.75 243.53 54.98 243.69 55.11C243.86 55.25 243.98 55.32 244.07 55.32C244.31 55.32 244.46 55.18 244.5 54.91ZM248.04 50.4C248.04 50.2 247.95 50.09 247.79 50.09L247.48 50.09C247.48 50.23 247.44 50.26 247.36 50.2C247.28 50.14 247.24 50.17 247.24 50.29C247.24 50.36 247.25 50.43 247.3 50.5C247.25 50.57 247.21 50.6 247.17 50.6C247.17 50.73 247.21 50.8 247.3 50.8L247.24 51C247.24 51.13 247.28 51.2 247.36 51.2C247.44 51.2 247.57 51.15 247.76 51.05C247.95 50.95 248.04 50.73 248.04 50.4ZM248.44 46.03C248.63 45.79 248.72 45.51 248.72 45.17C248.72 45.04 248.68 44.99 248.6 45.03C248.52 45.06 248.43 45.01 248.35 44.88C248.18 44.94 248.03 44.99 247.88 45.03C247.74 45.06 247.56 45.08 247.36 45.08C246.98 45.08 246.63 45.01 246.3 44.88C246.22 44.88 246.12 44.86 246.02 44.82C245.92 44.79 245.82 44.77 245.74 44.77C245.58 44.77 245.49 44.84 245.49 44.98C245.49 45.18 245.59 45.36 245.77 45.53C245.96 45.7 246.19 45.84 246.45 45.98C246.72 46.11 246.99 46.22 247.26 46.28C247.53 46.35 247.75 46.38 247.92 46.38C248.08 46.38 248.26 46.26 248.44 46.03ZM248.85 53.71L248.78 53.71L248.72 53.81C248.72 53.88 248.74 53.91 248.78 53.91L248.85 53.81L248.85 53.71ZM250.02 50.6L250.02 50.5C249.94 50.5 249.9 50.46 249.9 50.4C249.9 50.33 249.86 50.29 249.78 50.29L249.65 50.29L249.65 50.09L249.28 50.09C249.2 50.09 249.14 50.2 249.09 50.4C249.18 50.46 249.24 50.52 249.28 50.55C249.32 50.59 249.38 50.67 249.47 50.8L249.84 50.8C249.96 50.8 250.02 50.73 250.02 50.6ZM250.71 41.66C250.5 41.33 250.25 41.16 249.97 41.16C249.76 41.16 249.53 41.23 249.28 41.36C249.03 41.5 248.8 41.6 248.6 41.66C248.6 41.86 248.71 42.05 248.94 42.22C249.16 42.38 249.43 42.46 249.72 42.46C249.96 42.46 250.19 42.43 250.4 42.37C250.61 42.3 250.71 42.13 250.71 41.86L250.71 41.66ZM250.96 35.94C250.75 35.74 250.55 35.57 250.34 35.43C250.3 35.31 250.21 35.25 250.09 35.29C249.97 35.33 249.86 35.27 249.78 35.14C249.7 35.2 249.58 35.24 249.44 35.24C249.29 35.24 249.18 35.37 249.1 35.64C249.26 35.9 249.55 36.04 249.97 36.04C250.13 36.04 250.3 36.02 250.49 35.99C250.68 35.95 250.83 35.94 250.96 35.94ZM262.17 14.36C261.98 14.36 261.79 14.36 261.58 14.36C261.49 14.36 261.46 14.42 261.46 14.55C261.46 14.75 261.52 14.88 261.64 14.91C261.76 14.94 261.87 14.96 261.95 14.96C262.03 14.96 262.24 14.86 262.57 14.65C262.49 14.45 262.36 14.35 262.17 14.36ZM260.83 8.23C260.87 8.37 261.04 8.43 261.33 8.43C261.41 8.43 261.5 8.43 261.58 8.43C261.66 8.43 261.74 8.4 261.83 8.33L261.89 8.33C261.97 8.33 262.03 8.28 262.04 8.18C262.06 8.08 262.12 7.96 262.2 7.83C262.2 7.49 262.16 7.31 262.08 7.27C261.99 7.24 261.91 7.23 261.83 7.23C261.58 7.23 261.39 7.32 261.27 7.53C261.14 7.73 261 7.96 260.83 8.23ZM258.85 9.13C258.88 9.4 259.01 9.54 259.22 9.54L259.78 9.54C259.86 9.4 259.91 9.27 259.93 9.13C259.95 9 260 8.83 260.09 8.63C260.05 8.5 259.99 8.45 259.93 8.48C259.87 8.52 259.82 8.46 259.78 8.33L259.41 8.33C259.2 8.33 259.08 8.43 259.07 8.63C259.04 8.83 258.97 9 258.85 9.13ZM256.3 6.82C256.3 7.02 256.38 7.19 256.55 7.32L256.98 7.32C257.23 7.32 257.4 7.23 257.48 7.02C257.27 6.69 257.09 6.52 256.92 6.52C256.84 6.52 256.74 6.56 256.61 6.62C256.49 6.69 256.38 6.76 256.3 6.82ZM255 11.74C255 11.81 255.04 11.85 255.12 11.85C255.21 11.85 255.26 11.85 255.31 11.85C255.64 11.85 255.87 11.68 255.99 11.34C255.99 11.21 255.95 11.14 255.87 11.14L255.37 11.14C255.37 11.27 255.31 11.38 255.18 11.44C255.06 11.51 255 11.61 255 11.74ZM260.46 15.86C260.46 15.19 260.31 14.84 260 14.81C259.69 14.77 259.43 14.59 259.22 14.25C259.14 13.92 259 13.72 258.82 13.65C258.63 13.59 258.42 13.55 258.17 13.55L257.23 13.55C257.03 13.69 256.83 13.79 256.64 13.85C256.49 13.91 256.4 14.22 256.37 14.74L256.36 14.67L253.09 36.15L259.6 36.15L256.42 15.08C256.45 15.09 256.47 15.09 256.49 15.11C256.53 15.14 256.57 15.16 256.61 15.16C256.94 15.16 257.22 15.06 257.45 14.86C257.68 14.66 257.95 14.55 258.29 14.55C258.57 14.55 258.77 14.64 258.88 14.81C258.98 14.98 259.05 15.17 259.09 15.41C259.14 15.64 259.2 15.84 259.28 16.01C259.37 16.18 259.53 16.26 259.78 16.26C259.86 16.26 259.99 16.23 260.18 16.16C260.37 16.09 260.46 16 260.46 15.86ZM252.26 17.77C252.26 18.1 252.33 18.29 252.45 18.32C252.57 18.35 252.74 18.44 252.95 18.58C253.03 18.44 253.11 18.35 253.19 18.32C253.28 18.29 253.32 18.2 253.32 18.07L253.32 17.97C253.23 17.77 253.14 17.65 253.04 17.61C252.94 17.58 252.8 17.5 252.63 17.37C252.55 17.5 252.47 17.56 252.39 17.56C252.31 17.56 252.26 17.63 252.26 17.77ZM252.2 21.38C252.24 21.58 252.37 21.68 252.57 21.68L253.07 21.68L253.07 21.58L253.01 21.38L252.89 21.38C252.72 21.25 252.59 21.18 252.51 21.18C252.39 21.18 252.28 21.25 252.2 21.38ZM252.45 31.52C252.53 31.52 252.61 31.47 252.7 31.37C252.78 31.27 252.86 31.19 252.95 31.12L252.95 30.82C252.95 30.75 252.9 30.72 252.82 30.72L252.39 30.72C252.39 30.86 252.35 30.93 252.29 30.97C252.23 31 252.2 31.09 252.2 31.22C252.2 31.42 252.28 31.52 252.45 31.52ZM252.39 35.03C252.68 35.03 252.91 34.97 253.07 34.84L253.07 34.53C253.07 34.4 252.99 34.33 252.82 34.33L252.51 34.33C252.47 34.4 252.42 34.47 252.35 34.53C252.29 34.6 252.26 34.7 252.26 34.84L252.39 35.03ZM253.63 43.17C253.63 42.9 253.55 42.77 253.38 42.77C253.42 42.77 253.38 42.79 253.25 42.81C253.13 42.85 253.07 42.93 253.07 43.07C253.07 43.14 253.08 43.19 253.1 43.22C253.12 43.25 253.13 43.3 253.13 43.37C253.22 43.37 253.28 43.39 253.32 43.42C253.36 43.46 253.42 43.47 253.5 43.47C253.59 43.47 253.62 43.46 253.6 43.42C253.58 43.39 253.59 43.3 253.63 43.17ZM255.74 16.46C255.58 16.46 255.49 16.53 255.49 16.66C255.49 16.93 255.51 17.1 255.55 17.16C255.68 17.16 255.8 17 255.93 16.66C255.93 16.53 255.87 16.46 255.74 16.46ZM260.99 12.1C261.09 12.13 261.19 12.14 261.26 12.14C261.6 12.14 261.76 12.01 261.76 11.74C261.64 11.61 261.52 11.51 261.39 11.44C261.27 11.38 261.1 11.34 260.9 11.34C260.81 11.34 260.72 11.38 260.62 11.44C260.51 11.51 260.46 11.64 260.46 11.85C260.46 11.91 260.48 11.98 260.52 12.04L260.71 12.04C260.79 12.04 260.88 12.06 260.99 12.1ZM262.39 44.77L262.39 44.07C262.3 43.94 262.2 43.87 262.08 43.87C261.99 43.87 261.89 43.91 261.77 43.97C261.64 44.04 261.54 44.07 261.46 44.07L261.33 44.07C261.04 44.21 260.9 44.34 260.9 44.47C261.19 44.94 261.58 45.17 262.08 45.17C262.28 45.17 262.39 45.04 262.39 44.77L262.39 44.77ZM263.07 32.33C262.99 32.19 262.91 32.12 262.82 32.12C262.65 32.12 262.57 32.19 262.57 32.33C262.65 32.46 262.72 32.53 262.76 32.53C262.8 32.53 262.9 32.46 263.07 32.33ZM268.78 51.3C268.78 51.24 268.77 51.2 268.75 51.2C268.73 51.2 268.72 51.17 268.72 51.1L268.72 51C268.6 51 268.53 51.1 268.53 51.3L268.53 51.4C268.53 51.46 268.58 51.5 268.66 51.5C268.7 51.5 268.71 51.46 268.69 51.4C268.67 51.33 268.7 51.3 268.78 51.3ZM271.27 50.7C271.27 50.84 271.32 50.94 271.42 51C271.53 51.07 271.6 51.1 271.64 51.1C271.8 51.1 271.95 51 272.07 50.8C271.99 50.53 271.74 50.4 271.33 50.4C271.33 50.53 271.32 50.6 271.3 50.6C271.28 50.6 271.27 50.63 271.27 50.7ZM269.22 41.06C269.22 41.13 269.24 41.16 269.28 41.16L269.34 41.06L269.28 40.86C269.24 40.93 269.22 40.99 269.22 41.06ZM267.17 29.11L267.17 29.21C267.17 29.35 267.19 29.41 267.23 29.41C267.31 29.41 267.37 29.4 267.42 29.36C267.46 29.33 267.52 29.31 267.6 29.31C267.6 29.18 267.56 29.11 267.48 29.11L267.17 29.11ZM266.92 32.73C266.92 32.79 266.93 32.83 266.95 32.83C266.97 32.83 266.98 32.89 266.98 33.03C267.11 32.89 267.24 32.88 267.38 32.98C267.53 33.08 267.6 32.96 267.6 32.62C267.6 32.49 267.5 32.42 267.29 32.42C267.04 32.42 266.92 32.53 266.92 32.73ZM266.49 39.05C266.49 39.19 266.56 39.29 266.7 39.35C266.85 39.42 266.98 39.46 267.11 39.46C267.27 39.46 267.45 39.44 267.64 39.4C267.82 39.37 267.91 39.19 267.91 38.85L267.91 38.75C267.75 38.69 267.62 38.63 267.54 38.6C267.46 38.57 267.36 38.55 267.23 38.55C267.15 38.55 266.94 38.62 266.61 38.75L266.61 38.85C266.61 38.92 266.59 38.94 266.55 38.9C266.51 38.87 266.49 38.92 266.49 39.05ZM267.29 41.76C267.29 42.03 267.31 42.16 267.36 42.16L267.42 42.06L267.42 41.96C267.42 41.83 267.37 41.76 267.29 41.76ZM264.94 37.04L264.94 37.15C264.94 37.28 264.96 37.34 265 37.34L265.25 37.34C265.25 37.28 265.26 37.23 265.28 37.2C265.29 37.16 265.31 37.11 265.31 37.04L264.94 37.04ZM264.69 41.26C264.81 41.46 265.01 41.56 265.31 41.56C265.43 41.56 265.59 41.46 265.8 41.26L265.8 40.76C265.8 40.69 265.76 40.63 265.68 40.56L264.81 40.56L264.81 40.66C264.81 40.79 264.79 40.86 264.75 40.86C264.7 40.86 264.69 40.99 264.69 41.26ZM264.19 44.18C264.19 44.64 264.39 44.88 264.81 44.88L265.06 44.88C265.34 45.08 265.59 45.18 265.8 45.18C266.13 45.18 266.45 45.09 266.76 44.93C267.07 44.76 267.39 44.67 267.73 44.67C267.89 44.67 268.14 44.74 268.47 44.88C268.64 44.94 268.78 45.01 268.91 45.08C269.15 44.94 269.44 44.86 269.77 44.82C270.11 44.79 270.34 44.61 270.46 44.28C270.34 43.94 270.13 43.77 269.84 43.77C269.46 43.77 269.08 43.89 268.69 44.12C268.3 44.36 267.87 44.47 267.42 44.47C266.96 44.47 266.57 44.38 266.24 44.18C265.91 43.97 265.51 43.87 265.06 43.87C264.81 43.87 264.56 43.94 264.31 44.07L264.25 43.97C264.21 44.04 264.19 44.11 264.19 44.18ZM263.13 42.26C263.05 42.4 263.01 42.5 263.01 42.57C263.01 42.77 263.05 42.86 263.13 42.86C263.29 42.86 263.38 42.8 263.38 42.66L263.38 42.46C263.29 42.46 263.25 42.43 263.25 42.37C263.25 42.3 263.22 42.27 263.13 42.26ZM262.95 20.08L262.39 20.08C262.39 20.21 262.36 20.26 262.33 20.23C262.28 20.19 262.26 20.24 262.26 20.38L262.26 20.48L262.82 20.48C263.03 20.48 263.15 20.41 263.19 20.28C263.15 20.15 263.07 20.08 262.95 20.08Z" />
	<path id="Layer" class="shp0" d="M167.72 78.99L168.31 78.99L168.31 85.99L167.72 85.99L167.72 78.99Z" />
	<path id="Layer" fill-rule="evenodd" class="shp0" d="M157.92 43.78L157.92 57.26L142.97 57.26L142.97 41.81L157.92 41.81L157.92 43.2C157.9 43.19 157.89 43.17 157.86 43.17C157.78 43.17 157.63 43.2 157.43 43.26C157.22 43.33 157.12 43.44 157.12 43.57C157.12 43.91 157.2 44.07 157.37 44.07L157.74 44.07C157.82 43.94 157.88 43.85 157.92 43.78ZM148.12 45.04L146.3 45.04L146.3 54.02L148.12 54.02L148.12 45.04ZM151.38 49.79L149.59 49.79L149.59 54.04L151.38 54.04L151.38 49.79ZM151.38 45.04L149.59 45.04L149.59 48.26L151.38 48.26L151.38 45.04ZM152.83 54.71C152.83 54.65 152.79 54.61 152.71 54.61L152.46 54.61C152.46 54.88 152.54 55.02 152.71 55.02C152.79 55.02 152.83 54.91 152.83 54.71ZM154.59 48.6L152.96 48.6L152.96 54.02L154.59 54.02L154.59 48.6ZM154.59 45.04L152.96 45.04L152.96 47.1L154.59 47.1L154.59 45.04ZM155.38 44.77C155.33 44.58 155.27 44.51 155.19 44.58C155.11 44.64 155.07 44.58 155.07 44.37L154.69 44.37C154.57 44.37 154.51 44.44 154.51 44.58C154.63 44.77 154.82 44.87 155.07 44.87C155.15 44.87 155.2 44.85 155.22 44.82C155.24 44.79 155.3 44.77 155.38 44.77Z" />
	<path id="Layer" fill-rule="evenodd" class="shp0" d="M159.63 8.62L159.63 24.93C159.63 27.34 158.67 29.28 156.77 30.72C155.09 31.98 153 32.62 150.57 32.62C148.14 32.62 146.06 31.98 144.39 30.72C142.49 29.29 141.52 27.34 141.52 24.93L141.52 8.62C141.52 6.21 142.49 4.26 144.4 2.83C146.06 1.57 148.14 0.93 150.57 0.93C153 0.93 155.09 1.57 156.77 2.83C158.67 4.27 159.63 6.21 159.63 8.62ZM148.36 6.63C148.36 6.96 148.42 7.16 148.55 7.23C148.75 7.23 148.92 7.19 149.05 7.13C149.17 7.06 149.31 6.96 149.48 6.82C149.48 6.49 149.39 6.29 149.2 6.22C149.01 6.16 148.84 6.12 148.67 6.12C148.46 6.12 148.36 6.29 148.36 6.63ZM146.13 6.22C146.13 6.08 146.02 6.02 145.81 6.02C145.6 6.02 145.42 6.07 145.25 6.17C145.09 6.27 145 6.39 145 6.52C145 6.72 145.11 6.82 145.32 6.82C145.65 6.82 145.92 6.62 146.13 6.22ZM153.14 15.66L153.14 15.55C153.14 15.44 153.1 15.37 153.04 15.33L153.04 8.77C153.04 8.2 152.83 7.77 152.37 7.43C151.89 7.06 151.31 6.88 150.57 6.88C149.84 6.88 149.25 7.06 148.78 7.42C148.33 7.77 148.13 8.19 148.13 8.77L148.13 24.76C148.13 25.36 148.33 25.78 148.78 26.12C149.73 26.85 151.42 26.85 152.37 26.12C152.83 25.77 153.04 25.35 153.04 24.76L153.04 15.68C153.07 15.67 153.1 15.66 153.14 15.66L153.14 15.66ZM153.45 7.93C153.49 7.99 153.54 8.03 153.58 8.03C153.83 8.03 153.95 7.96 153.95 7.83L153.95 7.63C153.91 7.63 153.89 7.64 153.89 7.68C153.89 7.71 153.87 7.73 153.83 7.73C153.79 7.73 153.77 7.71 153.77 7.68C153.77 7.64 153.75 7.63 153.7 7.63C153.7 7.49 153.62 7.42 153.45 7.42C153.41 7.49 153.39 7.56 153.39 7.63C153.39 7.76 153.41 7.86 153.45 7.93ZM154.57 11.14L154.51 10.94C154.34 10.94 154.14 11.01 153.89 11.14C153.64 11.27 153.51 11.41 153.51 11.55C153.51 11.61 153.56 11.64 153.64 11.64C153.72 11.64 153.78 11.64 153.83 11.64C153.95 11.64 154.07 11.61 154.2 11.55C154.32 11.48 154.45 11.41 154.57 11.34L154.57 11.14Z" />
	<path id="Layer" class="shp0" d="M142.94 35.55L142.94 39.12L157.88 39.12L157.88 35.55L152.06 35.55C152.19 35.62 152.27 35.7 152.31 35.82L152.31 35.92C152.31 36.19 152.27 36.34 152.18 36.37C152.1 36.4 152.02 36.42 151.93 36.42C151.77 36.42 151.6 36.22 151.44 35.82C151.44 35.7 151.45 35.62 151.47 35.56L142.94 35.56L142.94 35.55Z" />
	<path id="Layer" fill-rule="evenodd" class="shp0" d="M345.36 0.99L345.36 9.94L334.54 9.94L334.54 11.76C334.18 11.79 333.99 12.05 333.99 12.54C334.08 12.68 334.16 12.78 334.24 12.84C334.33 12.99 334.43 13.06 334.54 13.1L334.54 57.26L323.97 57.26L323.97 9.93L313.18 9.93L313.18 0.99L345.36 0.99ZM327.22 13.65C327.14 13.38 326.98 13.24 326.73 13.24C326.48 13.24 326.25 13.21 326.04 13.15C325.84 13.21 325.73 13.55 325.73 14.15C325.77 14.35 325.92 14.45 326.17 14.45L326.6 14.45C326.77 14.45 326.89 14.35 326.98 14.15C327.06 13.95 327.14 13.79 327.22 13.65ZM327.35 9.93C327.35 9.87 327.31 9.83 327.22 9.83L326.98 9.83C326.85 9.83 326.79 9.8 326.79 9.73C326.7 9.8 326.62 9.86 326.54 9.88C326.46 9.92 326.42 10 326.42 10.14C326.42 10.27 326.48 10.37 326.6 10.44C326.89 10.44 327.12 10.37 327.29 10.23C327.32 10.17 327.35 10.07 327.35 9.93ZM328.71 16.36C328.67 16.23 328.53 16.16 328.28 16.16C328.28 16.3 328.27 16.35 328.25 16.31C328.23 16.28 328.22 16.3 328.22 16.36C328.22 16.5 328.32 16.56 328.53 16.56C328.57 16.56 328.63 16.5 328.71 16.36ZM329.21 13.05C329.13 12.92 329.03 12.76 328.93 12.6C328.83 12.43 328.67 12.34 328.46 12.34C328.38 12.34 328.27 12.46 328.12 12.7C327.98 12.93 327.91 13.11 327.91 13.25C327.95 13.32 327.97 13.38 327.97 13.45C328.09 13.65 328.26 13.75 328.46 13.75C328.67 13.75 328.85 13.74 328.99 13.7C329.14 13.67 329.21 13.45 329.21 13.05ZM329.39 7.63C329.48 7.9 329.69 8.03 330.02 8.03C330.35 8.03 330.66 8 330.95 7.93C331.24 7.86 331.38 7.66 331.38 7.33C331.34 7.33 331.32 7.26 331.32 7.13C331.28 7.06 331.23 7.04 331.16 7.08C331.11 7.11 331.07 7.06 331.07 6.92C330.74 6.92 330.45 7.01 330.2 7.17C329.96 7.34 329.69 7.49 329.39 7.63ZM330.64 12.14C330.56 12.14 330.49 12.16 330.45 12.2C330.41 12.23 330.37 12.25 330.33 12.25C330.33 12.58 330.41 12.75 330.58 12.75L330.58 12.65L330.64 12.54L330.7 12.54C330.74 12.54 330.76 12.48 330.76 12.35C330.76 12.21 330.72 12.14 330.64 12.14ZM331.07 22.48L331.07 22.29L330.95 22.29C330.87 22.29 330.83 22.22 330.83 22.08C330.62 22.22 330.37 22.36 330.08 22.48C329.79 22.63 329.6 22.92 329.52 23.39C329.69 23.53 329.89 23.59 330.14 23.59C330.39 23.59 330.61 23.49 330.79 23.29C330.98 23.09 331.07 22.82 331.07 22.48L331.07 22.48ZM331.26 19.07C331.55 19.07 331.85 18.99 332.16 18.82C332.47 18.66 332.73 18.44 332.93 18.17C332.93 17.97 332.82 17.8 332.59 17.66C332.37 17.54 332.21 17.47 332.13 17.47C331.92 17.47 331.75 17.6 331.6 17.87C331.46 18.14 331.26 18.27 331.01 18.27C330.6 18.27 330.31 18.07 330.14 17.66C330.05 17.74 329.94 17.75 329.77 17.72C329.6 17.68 329.52 17.77 329.52 17.97C329.6 18.04 329.66 18.19 329.68 18.42C329.7 18.66 329.79 18.77 329.96 18.77L330.45 18.77C330.66 18.77 330.79 18.82 330.86 18.93C330.92 19.02 331.05 19.07 331.26 19.07ZM332.44 26.7C332.36 26.7 332.25 26.74 332.13 26.8C332 26.87 331.9 26.94 331.82 27C331.82 27.07 331.84 27.11 331.88 27.11C331.92 27.11 331.94 27.17 331.94 27.31L332.56 27.31C332.77 27.31 332.87 27.21 332.87 27C332.79 26.8 332.64 26.7 332.44 26.7ZM332.69 51.8C332.64 51.67 332.56 51.57 332.41 51.5C332.26 51.44 332.23 51.4 332.32 51.4C332.15 51.4 331.98 51.53 331.82 51.8C331.9 51.8 331.98 51.85 332.03 51.96C332.1 52.05 332.17 52.1 332.25 52.1C332.42 52.1 332.56 52 332.69 51.8ZM332.81 39.25L332.81 39.15L332.69 38.95C332.6 38.95 332.54 39 332.5 39.1C332.46 39.2 332.42 39.29 332.38 39.35C332.38 39.42 332.42 39.45 332.5 39.45C332.54 39.45 332.56 39.49 332.56 39.55L332.62 39.55C332.67 39.42 332.71 39.37 332.75 39.41C332.79 39.44 332.81 39.39 332.81 39.25L332.81 39.25ZM333.5 32.83C333.5 32.76 333.43 32.73 333.31 32.73C333.18 32.73 333.09 32.74 333.03 32.78C332.97 32.81 332.9 32.83 332.81 32.83L332.32 32.83C332.19 32.83 332.06 32.86 331.91 32.93C331.77 32.99 331.7 33.1 331.7 33.23C331.7 33.36 331.73 33.45 331.82 33.48C331.9 33.52 331.99 33.53 332.07 33.53C332.36 33.53 332.57 33.47 332.72 33.33C332.87 33.2 333.06 33.13 333.31 33.13C333.43 33.06 333.5 32.96 333.5 32.83ZM333.5 14.96C333.29 14.62 332.98 14.45 332.56 14.45C332.32 14.45 332.08 14.42 331.85 14.35C331.62 14.29 331.4 14.25 331.2 14.25C331.07 14.25 330.91 14.29 330.7 14.35C330.49 14.42 330.39 14.62 330.39 14.96C330.39 15.29 330.5 15.47 330.73 15.51C330.96 15.54 331.17 15.59 331.38 15.66C331.59 15.52 331.88 15.49 332.25 15.56C332.62 15.63 332.98 15.59 333.31 15.46L333.31 15.36C333.35 15.36 333.37 15.37 333.37 15.4C333.37 15.44 333.39 15.46 333.43 15.46C333.47 15.46 333.5 15.39 333.5 15.26L333.5 14.96ZM335.48 9.13C335.48 9 335.42 8.94 335.3 8.94C335.21 8.94 335.08 8.95 334.89 8.99C334.71 9.02 334.61 9.17 334.61 9.43C334.61 9.7 334.76 9.83 335.05 9.83C335.25 9.83 335.4 9.6 335.48 9.13ZM335.48 4.11L335.48 4.01C335.48 3.82 335.42 3.71 335.3 3.71C335.25 3.71 335.24 3.78 335.24 3.91C335.24 4.11 335.27 4.22 335.36 4.22C335.4 4.22 335.44 4.18 335.48 4.11L335.48 4.11Z" />
	<path id="Layer" fill-rule="evenodd" class="shp0" d="M199.63 39.93L199.63 44.62C199.63 48.87 197.93 52.31 194.59 54.83C191.57 57.1 187.81 58.25 183.41 58.25C179.01 58.25 175.26 57.1 172.26 54.83C168.9 52.31 167.2 48.87 167.2 44.62L167.2 13.63C167.2 9.39 168.85 5.95 172.11 3.43C175.09 1.15 178.82 0 183.2 0C187.58 0 191.31 1.15 194.28 3.43C197.55 5.95 199.21 9.38 199.21 13.63L199.21 18.32L189.06 18.32L189.06 13.92C189.06 12.51 188.53 11.42 187.43 10.57C186.35 9.74 185.04 9.33 183.41 9.33C181.79 9.33 180.47 9.74 179.39 10.57C178.3 11.42 177.77 12.51 177.77 13.92L177.77 40.13C177.59 40.22 177.49 40.43 177.49 40.76L177.62 40.96C177.66 40.96 177.72 40.94 177.77 40.9L177.77 44.33C177.77 45.73 178.33 46.82 179.48 47.66C180.64 48.51 181.99 48.92 183.63 48.92C185.26 48.92 186.62 48.51 187.77 47.66C188.92 46.82 189.48 45.73 189.48 44.33L189.48 39.93L199.63 39.93ZM185.19 5.42C185.19 5.75 185.25 5.92 185.37 5.92C185.5 5.92 185.6 5.92 185.69 5.92C185.97 5.79 186.14 5.48 186.18 5.02C186.14 4.95 186.08 4.92 185.99 4.92C185.95 4.92 185.9 4.93 185.84 4.97C185.78 5 185.73 5.02 185.69 5.02L185.56 5.02C185.56 5.15 185.5 5.22 185.38 5.22C185.25 5.22 185.19 5.29 185.19 5.42ZM183.45 6.32L183.51 6.32C183.59 6.32 183.64 6.29 183.64 6.22C183.64 6.16 183.68 6.12 183.76 6.12L183.76 6.02C183.76 5.95 183.74 5.92 183.7 5.92C183.53 5.92 183.45 6.06 183.45 6.32ZM176.06 17.97C176.06 18.17 176.08 18.27 176.12 18.27L176.19 18.17C176.19 18.04 176.14 17.97 176.06 17.97ZM175.75 32.02C175.75 32.09 175.85 32.12 176.06 32.12C176.26 32.12 176.37 32.02 176.37 31.82C176.37 31.62 176.22 31.52 175.94 31.52C175.94 31.66 175.9 31.76 175.84 31.82C175.78 31.89 175.75 31.96 175.75 32.02ZM173.95 34.53C174.03 34.53 174.11 34.53 174.2 34.53C174.2 34.47 174.21 34.42 174.23 34.38C174.25 34.35 174.26 34.3 174.26 34.23C174.22 34.17 174.15 34.13 174.07 34.13C174.03 34.13 174 34.15 173.98 34.18C173.96 34.22 173.93 34.23 173.89 34.23L173.82 34.23L173.82 34.33C173.82 34.47 173.86 34.53 173.95 34.53ZM174.63 40.56L174.63 40.36C174.63 40.29 174.61 40.26 174.57 40.26C174.48 40.26 174.44 40.22 174.44 40.16C174.36 40.09 174.3 40.06 174.26 40.06C174.09 40.06 174.01 40.13 174.01 40.26L174.13 40.66C174.18 40.66 174.22 40.62 174.26 40.56C174.34 40.7 174.37 40.76 174.35 40.76C174.33 40.76 174.38 40.76 174.51 40.76C174.59 40.76 174.63 40.7 174.63 40.56ZM176.37 45.98C176.37 45.85 176.26 45.78 176.06 45.78L176.06 45.88C176.06 46.14 176.14 46.28 176.31 46.28C176.35 46.22 176.37 46.11 176.37 45.98ZM176.68 38.55L176.68 38.45C176.68 38.12 176.55 37.95 176.31 37.95C176.22 37.95 176.13 37.97 176.03 38C175.92 38.03 175.83 38.05 175.75 38.05L175.62 38.05C175.62 38.12 175.61 38.15 175.6 38.15C175.57 38.15 175.56 38.19 175.56 38.25C175.56 38.39 175.57 38.53 175.6 38.71C175.61 38.87 175.64 38.95 175.69 38.95C175.73 38.95 175.77 38.92 175.81 38.85C175.85 38.99 175.96 39.05 176.12 39.05C176.2 39.05 176.32 39 176.46 38.9C176.61 38.8 176.68 38.69 176.68 38.55L176.68 38.55ZM177.67 47.59L177.99 47.59C178.07 47.59 178.11 47.56 178.11 47.49C177.99 47.35 177.88 47.19 177.8 46.99C177.72 46.79 177.57 46.68 177.36 46.68L177.24 46.68C177.24 47.02 177.29 47.24 177.4 47.34C177.5 47.44 177.59 47.52 177.67 47.59L177.67 47.59ZM179.1 54.01C178.94 53.74 178.71 53.61 178.42 53.61C178.21 53.61 178.07 53.68 177.98 53.81C178.07 54.08 178.17 54.21 178.29 54.21C178.42 54.21 178.48 54.28 178.48 54.41C178.77 54.41 178.98 54.28 179.1 54.01ZM182.4 53.51C182.31 53.51 182.28 53.44 182.3 53.31C182.32 53.17 182.31 53.11 182.27 53.11C182.23 53.11 182.21 53.12 182.21 53.16C182.21 53.19 182.19 53.21 182.14 53.21C182.06 52.94 181.95 52.8 181.81 52.8C181.66 52.8 181.48 52.74 181.27 52.61C181.11 52.67 181.03 52.8 181.03 53.01C181.03 53.34 181.12 53.61 181.31 53.81C181.49 54.01 181.69 54.11 181.9 54.11C181.98 54.11 182.08 54.05 182.21 53.91C182.34 53.78 182.4 53.64 182.4 53.51ZM184.32 54.41C184.32 54.21 184.22 54.11 184.01 54.11C183.84 54.11 183.74 54.15 183.7 54.21C183.7 54.61 183.8 54.81 184.01 54.81C184.22 54.81 184.32 54.68 184.32 54.41ZM186.93 52.5C186.93 52.44 186.91 52.42 186.87 52.46C186.82 52.49 186.8 52.44 186.8 52.31C186.8 52.24 186.76 52.2 186.68 52.2C186.6 52.2 186.51 52.24 186.43 52.31C186.31 52.44 186.25 52.58 186.25 52.71C186.25 52.77 186.27 52.84 186.31 52.91C186.39 52.77 186.51 52.73 186.68 52.76C186.84 52.79 186.93 52.71 186.93 52.5Z" />
	<path id="Layer" fill-rule="evenodd" class="shp0" d="M133.88 15.99L133.88 57.2L124.89 57.2L112.6 28.11C112.64 28.11 112.68 28.11 112.72 28.11C112.76 28.11 112.79 28.09 112.81 28.05C112.83 28.02 112.86 28 112.9 28C112.9 27.81 112.8 27.7 112.59 27.7C112.53 27.7 112.48 27.72 112.44 27.74L112.02 26.75L112.02 43.22C112.01 43.22 112 43.21 111.97 43.21C111.89 43.25 111.81 43.26 111.72 43.26C111.51 43.26 111.33 43.3 111.16 43.37C111 43.44 110.77 43.47 110.48 43.47C110.27 43.47 110.07 43.35 109.89 43.12C109.71 42.88 109.61 42.63 109.61 42.37C109.61 42.1 109.67 41.91 109.8 41.81C109.92 41.71 110.05 41.64 110.2 41.61C110.35 41.58 110.48 41.53 110.6 41.46C110.73 41.39 110.79 41.26 110.79 41.06L110.79 40.75L110.73 40.66L110.73 40.55C110.56 40.42 110.44 40.35 110.35 40.35C110.11 40.35 109.92 40.39 109.79 40.46C109.67 40.52 109.52 40.79 109.36 41.26C109.36 41.33 109.37 41.38 109.39 41.41C109.41 41.44 109.42 41.49 109.42 41.56C109.42 41.83 109.32 42.01 109.11 42.11C108.9 42.21 108.76 42.26 108.68 42.26C108.51 42.26 108.37 42.23 108.24 42.16C108.12 42.1 107.97 42 107.81 41.86C107.64 41.33 107.34 41.07 106.9 41.11C106.47 41.14 106.15 40.99 105.95 40.66C105.86 40.66 105.76 40.64 105.63 40.61C105.51 40.57 105.41 40.55 105.32 40.55C104.95 40.55 104.76 40.72 104.76 41.06C104.76 41.19 104.81 41.26 104.89 41.26L104.89 41.36C105.22 41.22 105.43 41.16 105.51 41.16C105.67 41.16 105.87 41.26 106.1 41.46C106.32 41.66 106.56 41.88 106.78 42.11C107.01 42.34 107.2 42.59 107.34 42.86C107.49 43.13 107.56 43.33 107.56 43.47C107.56 43.8 107.51 44.04 107.4 44.17C107.3 44.31 107.18 44.4 107.03 44.47C106.89 44.54 106.75 44.62 106.63 44.72C106.5 44.82 106.42 44.97 106.38 45.17C106.46 45.38 106.51 45.57 106.54 45.77C106.56 45.98 106.64 46.08 106.81 46.08C107.1 45.81 107.43 45.67 107.81 45.67C108.18 45.67 108.51 45.6 108.8 45.47C108.8 45.14 108.71 44.91 108.52 44.77C108.33 44.64 108.24 44.4 108.24 44.07C108.24 43.73 108.39 43.56 108.67 43.56C108.88 43.56 109.1 43.6 109.33 43.67C109.55 43.73 109.67 43.84 109.67 43.97C109.75 43.84 109.83 43.8 109.89 43.87C109.95 43.94 110 43.87 110.04 43.67C110.29 43.87 110.58 43.97 110.91 43.97C111.16 43.97 111.36 43.87 111.5 43.67C111.65 43.47 111.76 43.37 111.84 43.37L112.02 43.37L112.02 46.15C112 46.14 111.99 46.14 111.97 46.13C111.93 46.1 111.89 46.08 111.84 46.08C111.72 46.28 111.66 46.41 111.66 46.48C111.66 46.75 111.73 46.88 111.88 46.88C111.94 46.88 111.97 46.88 112.02 46.88L112.02 57.2L101.45 57.2L101.45 0.93L110.48 0.93L123.34 31.41L123.34 0.93L133.88 0.93L133.88 15.91C133.88 15.87 133.87 15.83 133.86 15.81C133.84 15.77 133.83 15.72 133.83 15.66C133.83 15.52 133.72 15.36 133.52 15.15C133.27 15.15 133.15 15.26 133.15 15.46C133.15 15.66 133.18 15.77 133.24 15.81C133.3 15.84 133.37 15.93 133.46 16.06L133.77 16.06C133.84 16.06 133.87 16.03 133.88 15.99L133.88 15.99ZM110.23 47.98C110.23 48.25 110.31 48.39 110.47 48.39C110.52 48.32 110.58 48.22 110.66 48.09C110.75 47.95 110.79 47.82 110.79 47.68C110.75 47.62 110.7 47.53 110.66 47.43C110.62 47.33 110.56 47.28 110.47 47.28C110.31 47.28 110.23 47.52 110.23 47.98ZM110.17 56.31L110.17 56.42C110.17 56.55 110.19 56.64 110.23 56.67C110.27 56.7 110.33 56.79 110.41 56.92L110.79 56.92C110.95 56.92 111.04 56.86 111.04 56.72L111.04 56.62C110.95 56.42 110.81 56.31 110.6 56.31L110.17 56.31ZM108.12 53.01C108.03 52.81 107.89 52.71 107.68 52.71C107.56 52.71 107.41 52.77 107.25 52.9C107.33 53.17 107.48 53.3 107.68 53.3C107.73 53.24 107.76 53.21 107.81 53.21L107.99 53.21C108.07 53.21 108.11 53.14 108.12 53.01ZM109.36 56.12C109.11 55.85 108.9 55.72 108.74 55.72C108.57 55.72 108.49 55.82 108.49 56.02C108.49 56.08 108.52 56.14 108.58 56.17C108.64 56.2 108.69 56.28 108.74 56.42L109.05 56.42C109.21 56.42 109.32 56.31 109.36 56.12ZM109.67 46.08C109.67 46.28 109.71 46.38 109.79 46.38C109.88 46.38 109.94 46.38 109.98 46.38L109.98 46.28C109.98 46.14 109.94 46.09 109.85 46.13C109.77 46.16 109.71 46.14 109.67 46.08ZM107.99 47.78C107.99 47.98 108.05 48.12 108.18 48.19C108.22 48.25 108.28 48.32 108.36 48.39C108.53 48.39 108.63 48.3 108.67 48.13C108.71 47.97 108.76 47.82 108.8 47.68C108.8 47.48 108.7 47.38 108.49 47.38C108.41 47.38 108.3 47.42 108.18 47.48C108.05 47.55 107.99 47.65 107.99 47.78ZM106.94 49.79C106.94 49.99 107.03 50.14 107.22 50.24C107.4 50.34 107.61 50.43 107.84 50.5C108.06 50.56 108.27 50.6 108.46 50.6C108.64 50.6 108.74 50.63 108.74 50.69C108.78 50.77 108.88 50.8 109.05 50.8C109.38 50.8 109.65 50.53 109.85 49.99C109.81 49.79 109.64 49.69 109.36 49.69L108.92 49.69C108.8 49.69 108.69 49.66 108.61 49.59C108.41 49.32 108.18 49.19 107.93 49.19C107.81 49.19 107.61 49.26 107.34 49.39C107.07 49.52 106.94 49.66 106.94 49.79ZM103.71 38.75C103.71 38.82 103.79 38.99 103.96 39.25C104.08 39.12 104.19 39.04 104.3 39C104.4 38.97 104.45 38.82 104.45 38.55C104.37 38.35 104.29 38.25 104.21 38.25C103.87 38.25 103.7 38.41 103.71 38.75ZM102.71 41.36C102.59 41.16 102.51 41.06 102.46 41.06C102.34 41.06 102.28 41.16 102.28 41.36L102.34 41.36C102.42 41.36 102.47 41.39 102.49 41.46C102.52 41.53 102.57 41.56 102.65 41.56C102.69 41.56 102.71 41.51 102.71 41.41C102.71 41.38 102.71 41.37 102.71 41.36ZM104.14 46.48L104.14 46.28C103.98 46.14 103.79 46.08 103.58 46.08C103.34 46.08 103.19 46.21 103.15 46.48C103.15 46.82 103.23 46.98 103.4 46.98C103.48 46.98 103.56 46.96 103.65 46.93C103.73 46.9 103.79 46.88 103.83 46.88L103.96 46.88C104.08 46.82 104.14 46.68 104.14 46.48L104.14 46.48ZM106.07 51.2C106.03 51.06 105.9 51 105.69 51C105.69 51.2 105.74 51.3 105.82 51.3C105.9 51.3 105.95 51.28 105.98 51.24C105.99 51.21 106.03 51.2 106.07 51.2ZM105.51 47.89C105.51 48.22 105.67 48.39 106.01 48.39C106.05 48.39 106.15 48.34 106.32 48.24C106.48 48.13 106.59 47.95 106.63 47.68L106.63 47.18C106.63 47.05 106.61 46.98 106.57 46.98C106.48 46.98 106.38 47.07 106.25 47.23C106.13 47.4 106.03 47.48 105.94 47.48L105.88 47.48C105.84 47.62 105.76 47.68 105.66 47.68C105.56 47.68 105.51 47.75 105.51 47.89ZM104.45 43.37C104.33 43.37 104.21 43.31 104.11 43.21C104.01 43.12 103.87 43.06 103.7 43.06C103.54 43.06 103.46 43.16 103.46 43.37C103.46 43.5 103.53 43.6 103.68 43.67C103.82 43.73 103.99 43.82 104.17 43.92C104.36 44.01 104.52 44.1 104.67 44.17C104.81 44.23 104.89 44.31 104.89 44.37C105.05 44.37 105.2 44.23 105.32 43.97C105.11 43.84 104.97 43.7 104.89 43.56C104.81 43.44 104.66 43.37 104.45 43.37ZM106.44 39.25L106.44 39.05C106.27 38.78 106.11 38.65 105.94 38.65C105.77 38.65 105.69 38.75 105.69 38.95C105.69 39.02 105.73 39.16 105.82 39.4C105.9 39.64 106 39.75 106.13 39.75C106.33 39.75 106.44 39.59 106.44 39.25L106.44 39.25ZM108.3 34.33C108.34 34.46 108.35 34.62 108.33 34.78C108.31 34.95 108.36 35.03 108.49 35.03C108.57 35.03 108.63 34.99 108.67 34.88C108.71 34.78 108.76 34.7 108.8 34.63C108.84 34.57 108.86 34.46 108.86 34.33C108.86 34.2 108.82 34.13 108.74 34.13C108.53 34.13 108.39 34.2 108.3 34.33ZM108.12 37.85L108.12 37.15C108.03 36.81 107.83 36.64 107.49 36.64C107.29 36.64 107.12 36.74 107 36.94L107 37.55C107 37.68 107.08 37.79 107.25 37.9C107.41 37.99 107.58 38.05 107.75 38.05C107.99 38.05 108.11 37.98 108.12 37.85ZM108.99 39.45L108.99 39.25C108.99 39.05 108.92 38.95 108.8 38.95L108.43 38.95C108.34 39.15 108.25 39.3 108.15 39.4C108.04 39.5 107.99 39.65 107.99 39.85C107.99 40.19 108.07 40.37 108.24 40.41C108.41 40.44 108.59 40.46 108.8 40.46C108.8 40.32 108.83 40.16 108.89 39.96C108.95 39.75 108.99 39.59 108.99 39.45ZM110.6 33.43C110.48 33.23 110.31 33.13 110.11 33.13C109.98 33.13 109.92 33.23 109.92 33.43L109.92 33.53C109.92 33.59 109.94 33.66 109.98 33.73L110.35 33.73C110.52 33.73 110.6 33.63 110.6 33.43ZM111.41 17.26C111.41 17.13 111.34 17.08 111.19 17.12C111.05 17.15 110.93 17.13 110.85 17.06C110.77 17.13 110.67 17.23 110.57 17.36C110.47 17.5 110.41 17.66 110.41 17.87C110.41 18 110.47 18.06 110.6 18.06C110.93 18.06 111.12 17.97 111.16 17.76C111.2 17.56 111.28 17.4 111.41 17.26ZM111.72 9.53C111.72 9.8 111.74 9.93 111.78 9.93C111.78 9.87 111.8 9.83 111.84 9.83L111.84 9.73C111.84 9.6 111.8 9.53 111.72 9.53ZM112.34 13.25C112.3 13.25 112.26 13.23 112.22 13.2C112.17 13.16 112.13 13.15 112.09 13.15C111.89 13.15 111.76 13.24 111.72 13.45C111.76 13.52 111.82 13.55 111.91 13.55C111.99 13.55 112.06 13.52 112.12 13.45C112.19 13.38 112.25 13.31 112.34 13.25ZM124.39 23.39C124.39 23.19 124.3 23.09 124.14 23.09C124.06 23.09 124.02 23.15 124.02 23.29C124.02 23.36 124.04 23.42 124.08 23.49L124.33 23.49C124.36 23.49 124.39 23.46 124.39 23.39ZM129.01 30.22C128.83 30.28 128.69 30.25 128.61 30.12C128.57 30.25 128.52 30.35 128.45 30.42C128.39 30.48 128.36 30.55 128.36 30.62C128.36 30.75 128.41 30.82 128.49 30.82C128.57 30.82 128.65 30.82 128.74 30.82C129.03 30.82 129.23 30.68 129.36 30.42C129.32 30.22 129.2 30.15 129.01 30.22ZM128.43 27.51C128.51 27.51 128.57 27.49 128.61 27.45C128.65 27.42 128.72 27.4 128.8 27.4L128.86 27.4C128.94 27.27 129.03 27.21 129.11 27.21C129.19 27.21 129.23 27.14 129.23 27L129.23 26.9C129.15 26.7 128.98 26.6 128.74 26.6C128.53 26.6 128.39 26.67 128.33 26.8C128.27 26.93 128.24 27.07 128.24 27.2C128.24 27.4 128.3 27.51 128.43 27.51ZM129.23 43.77C129.23 43.7 129.21 43.67 129.17 43.67C129.13 43.54 129.12 43.44 129.14 43.37C129.16 43.3 129.13 43.26 129.04 43.26L128.86 43.26C128.77 43.26 128.68 43.29 128.58 43.32C128.47 43.35 128.42 43.47 128.42 43.67C128.51 43.73 128.59 43.82 128.67 43.92C128.75 44.02 128.84 44.07 128.92 44.07C128.96 44.07 129 44.04 129.04 43.97C129.17 43.77 129.23 43.7 129.23 43.77ZM129.48 40.16C129.48 39.96 129.45 39.82 129.39 39.75C129.32 39.69 129.25 39.62 129.17 39.55C129.13 39.55 129.09 39.57 129.07 39.6C129.06 39.64 129.03 39.65 128.98 39.65C128.9 39.65 128.83 39.64 128.8 39.6C128.75 39.57 128.69 39.55 128.61 39.55C128.44 39.55 128.36 39.62 128.36 39.75C128.36 40.09 128.41 40.24 128.52 40.21C128.62 40.18 128.69 40.26 128.74 40.46L129.23 40.46C129.4 40.46 129.48 40.36 129.48 40.16ZM131.97 44.58C131.88 44.44 131.76 44.37 131.59 44.37C131.38 44.37 131.2 44.51 131.03 44.77C131.07 44.77 131.12 44.79 131.16 44.82C131.2 44.85 131.26 44.87 131.34 44.87C131.55 44.87 131.76 44.77 131.97 44.58ZM132.9 11.54C132.81 11.41 132.71 11.29 132.59 11.19C132.46 11.09 132.32 11.04 132.15 11.04C132.11 11.04 132.08 11.06 132.06 11.09C132.04 11.12 131.98 11.14 131.9 11.14C131.9 11.41 131.97 11.56 132.12 11.59C132.27 11.63 132.4 11.64 132.53 11.64C132.69 11.64 132.81 11.61 132.9 11.54ZM132.9 7.93C132.9 7.73 132.81 7.63 132.65 7.63C132.53 7.63 132.46 7.69 132.46 7.83C132.46 7.96 132.5 8.03 132.59 8.03C132.71 8.03 132.81 7.99 132.9 7.93Z" />
	<path id="Layer" class="shp0" d="M201.56 82.66C201.25 82.51 200.85 82.36 200.34 82.19C199.89 82.04 199.54 81.91 199.29 81.8C199.04 81.69 198.83 81.53 198.66 81.35C198.49 81.16 198.41 80.93 198.41 80.64C198.41 80.23 198.57 79.93 198.9 79.73C199.22 79.54 199.65 79.44 200.16 79.44C200.52 79.44 200.88 79.49 201.24 79.58C201.6 79.67 201.91 79.8 202.18 79.97L202.18 79.37C201.91 79.22 201.59 79.1 201.23 79.01C200.86 78.92 200.49 78.88 200.12 78.88C199.71 78.88 199.33 78.95 198.97 79.08C198.62 79.21 198.34 79.41 198.13 79.68C197.92 79.95 197.81 80.27 197.81 80.66C197.81 81.06 197.91 81.39 198.12 81.64C198.33 81.89 198.58 82.09 198.88 82.23C199.18 82.37 199.58 82.52 200.07 82.68C200.52 82.83 200.88 82.97 201.14 83.08C201.4 83.2 201.62 83.36 201.8 83.56C201.98 83.77 202.07 84.02 202.07 84.33C202.07 84.75 201.89 85.05 201.53 85.25C201.18 85.44 200.72 85.54 200.15 85.54C199.29 85.54 198.5 85.33 197.8 84.92L197.8 85.51C198.52 85.9 199.33 86.1 200.23 86.1C200.93 86.1 201.51 85.95 201.97 85.65C202.44 85.36 202.67 84.9 202.67 84.29C202.67 83.88 202.56 83.54 202.34 83.27C202.13 83 201.86 82.8 201.56 82.66Z" />
	<path id="Layer" fill-rule="evenodd" class="shp0" d="M234.61 57.26L206.92 57.26L206.92 0.99L217.49 0.99L217.49 48.35L234.61 48.35L234.61 57.26ZM215.19 17.56L215.44 17.56L215.44 17.46C215.44 17.4 215.41 17.36 215.37 17.36L215.19 17.36L215.19 17.56ZM210.34 29.01C210.34 29.08 210.38 29.14 210.47 29.21C210.59 29.21 210.68 29.18 210.74 29.11C210.81 29.04 210.88 28.94 210.97 28.81C210.92 28.74 210.86 28.71 210.78 28.71L210.47 28.71L210.47 28.81C210.47 28.88 210.45 28.91 210.41 28.91C210.36 28.91 210.34 28.94 210.34 29.01ZM210.97 32.32L210.9 32.32C210.86 32.32 210.83 32.31 210.81 32.27C210.79 32.24 210.75 32.22 210.71 32.22L210.65 32.22L210.65 32.42C210.65 32.49 210.69 32.52 210.78 32.52C210.9 32.52 210.97 32.46 210.97 32.32ZM211.09 45.57C210.92 45.31 210.75 45.17 210.59 45.17C210.42 45.17 210.34 45.24 210.34 45.38C210.34 45.64 210.38 45.81 210.47 45.88C210.55 45.95 210.63 45.98 210.72 45.98C210.97 45.98 211.09 45.84 211.09 45.57ZM211.27 42.06C211.15 41.73 210.98 41.56 210.78 41.56C210.73 41.56 210.66 41.58 210.56 41.61C210.45 41.64 210.41 41.73 210.41 41.86C210.41 42.06 210.48 42.21 210.65 42.31C210.82 42.41 210.94 42.46 211.02 42.46C211.19 42.46 211.27 42.33 211.27 42.06ZM212.39 46.78C212.48 46.91 212.62 46.98 212.83 46.98C213.12 46.98 213.42 46.93 213.73 46.83C214.04 46.73 214.22 46.58 214.25 46.38C214.17 46.38 214.14 46.32 214.16 46.23C214.18 46.13 214.15 46.08 214.07 46.08L213.63 46.08C213.39 46.08 213.16 46.16 212.95 46.32C212.75 46.49 212.55 46.65 212.39 46.78ZM214.57 52.8C214.32 52.47 213.96 52.3 213.51 52.3C213.3 52.3 213.13 52.34 212.98 52.4C212.83 52.47 212.76 52.67 212.76 53.01C212.76 53.21 212.91 53.3 213.2 53.3C213.49 53.3 213.72 53.26 213.91 53.16C214.1 53.05 214.32 52.94 214.57 52.8ZM217.86 55.91C217.81 55.79 217.73 55.72 217.61 55.72L217.11 55.72C216.95 55.91 216.68 56.02 216.3 56.02L215.74 56.02C215.49 56.02 215.29 56.07 215.12 56.17C214.96 56.27 214.87 56.55 214.87 57.02C215.04 57.16 215.14 57.22 215.18 57.22C215.27 57.22 215.34 57.19 215.4 57.12C215.46 57.06 215.58 57.02 215.75 57.02C216.03 56.75 216.41 56.64 216.86 56.67C217.32 56.7 217.65 56.45 217.86 55.91ZM221.27 54.31C221.27 54.24 221.23 54.21 221.15 54.21C221.07 54.21 221 54.21 220.96 54.21L220.96 54.31C220.96 54.45 220.98 54.51 221.02 54.51L221.21 54.51C221.25 54.44 221.27 54.38 221.27 54.31Z" />
	<path id="Layer" class="shp0" d="M132.92 79.56L135.48 79.56L135.48 85.99L136.07 85.99L136.07 79.56L138.63 79.56L138.63 78.99L132.92 78.99L132.92 79.56Z" />
</svg>